<svg width="707" height="208" viewBox="0 0 707 208" fill="none" xmlns="http://www.w3.org/2000/svg">
<g clip-path="url(#clip0_2008_468)" filter="url(#filter0_d_2008_468)">
<mask id="mask0_2008_468" style="mask-type:luminance" maskUnits="userSpaceOnUse" x="4" y="0" width="699" height="200">
<path d="M703 0H4V200H703V0Z" fill="white"/>
</mask>
<g mask="url(#mask0_2008_468)">
<path d="M140 36C140 55.8823 123.882 72 104 72C84.1178 72 68 55.8823 68 36C68 16.1177 84.1178 0 104 0C123.882 0 140 16.1177 140 36Z" fill="#B0B0B0"/>
<path d="M8.38 62.6699C7.12 62.6699 5.87 62.6699 4.63 62.7699C4.21269 66.4419 4.00236 70.1344 4 73.8299C4 128.83 48.77 173.45 104 173.45C105.26 173.45 106.5 173.45 107.75 173.36H109C161.91 170.76 204 127.21 204 73.8599C203.997 70.1647 203.79 66.4724 203.38 62.7999C150.47 65.3999 108.38 108.95 108.38 162.3C108.38 107.28 63.61 62.6699 8.38 62.6699Z" fill="#B0B0B0"/>
<path d="M109.1 175.33H107.61C107.031 175.33 106.44 175.35 105.843 175.369C105.233 175.39 104.616 175.41 104 175.41C80.5101 175.416 57.7366 167.322 39.5201 152.491C21.3035 137.661 8.75827 117.003 4 94C5 152.72 49.4 200 104 200C158.56 200 202.91 152.77 204 94.08C199.468 116.247 187.677 136.271 170.49 150.986C153.302 165.701 131.701 174.267 109.1 175.33Z" fill="#B0B0B0"/>
<path d="M625.135 62.5601C637.135 62.5601 646.855 66.2201 654.295 73.5401C661.735 80.7401 665.455 91.1801 665.455 104.86V163H649.255V107.2C649.255 97.3601 646.795 89.8601 641.875 84.7001C636.955 79.4201 630.235 76.7801 621.715 76.7801C613.075 76.7801 606.175 79.4801 601.015 84.8801C595.975 90.2801 593.455 98.1401 593.455 108.46V163H577.075V64.3601H593.455V78.4001C596.695 73.3601 601.075 69.4601 606.595 66.7001C612.235 63.9401 618.415 62.5601 625.135 62.5601Z" fill="#B0B0B0"/>
<path d="M692.032 164.08C688.912 164.08 686.272 163 684.112 160.84C681.952 158.68 680.872 156.04 680.872 152.92C680.872 149.8 681.952 147.16 684.112 145C686.272 142.84 688.912 141.76 692.032 141.76C695.032 141.76 697.552 142.84 699.592 145C701.752 147.16 702.832 149.8 702.832 152.92C702.832 156.04 701.752 158.68 699.592 160.84C697.552 163 695.032 164.08 692.032 164.08Z" fill="#B0B0B0"/>
<path fill-rule="evenodd" clip-rule="evenodd" d="M560.314 119.8C560.674 116.32 560.854 113.02 560.854 109.9C560.854 100.9 558.874 92.86 554.914 85.78C551.074 78.58 545.554 72.94 538.354 68.86C531.154 64.78 522.874 62.74 513.514 62.74C503.914 62.74 495.394 64.84 487.954 69.04C480.634 73.12 474.934 79 470.854 86.68C466.774 94.36 464.734 103.3 464.734 113.5C464.734 123.7 466.834 132.7 471.034 140.5C475.234 148.18 480.994 154.12 488.314 158.32C495.754 162.52 504.154 164.62 513.514 164.62C525.274 164.62 535.114 161.68 543.034 155.8C550.954 149.8 556.234 142.06 558.874 132.58H541.234C539.314 138.1 535.954 142.54 531.154 145.9C526.474 149.14 520.594 150.76 513.514 150.76C504.874 150.76 497.494 148.06 491.374 142.66C485.374 137.14 482.074 129.52 481.474 119.8H560.314ZM539.794 90.46C542.554 94.9 543.934 100.24 543.934 106.48H481.654C482.494 97.12 485.794 89.8 491.554 84.52C497.434 79.24 504.514 76.6 512.794 76.6C518.554 76.6 523.774 77.8 528.454 80.2C533.254 82.48 537.034 85.9 539.794 90.46Z" fill="#B0B0B0"/>
<path d="M412.075 147.88L442.675 64.3601H460.135L421.435 163H402.355L363.655 64.3601H381.295L412.075 147.88Z" fill="#B0B0B0"/>
<path fill-rule="evenodd" clip-rule="evenodd" d="M259.115 86.86C255.035 94.42 252.995 103.24 252.995 113.32C252.995 123.28 255.035 132.16 259.115 139.96C263.195 147.76 268.775 153.82 275.855 158.14C282.935 162.46 290.855 164.62 299.615 164.62C308.135 164.62 315.575 162.76 321.935 159.04C328.415 155.2 333.275 150.4 336.515 144.64V163H353.075V64.36H336.515V82.36C333.395 76.72 328.655 72.04 322.295 68.32C315.935 64.6 308.435 62.74 299.795 62.74C291.035 62.74 283.055 64.84 275.855 69.04C268.775 73.24 263.195 79.18 259.115 86.86ZM332.015 94.06C335.015 99.58 336.515 106.06 336.515 113.5C336.515 120.94 335.015 127.48 332.015 133.12C329.015 138.64 324.935 142.9 319.775 145.9C314.735 148.78 309.155 150.22 303.035 150.22C296.915 150.22 291.335 148.78 286.295 145.9C281.255 142.9 277.235 138.64 274.235 133.12C271.235 127.48 269.735 120.88 269.735 113.32C269.735 105.88 271.235 99.4 274.235 93.88C277.235 88.36 281.255 84.16 286.295 81.28C291.335 78.4 296.915 76.96 303.035 76.96C309.155 76.96 314.735 78.46 319.775 81.46C324.935 84.34 329.015 88.54 332.015 94.06Z" fill="#B0B0B0"/>
</g>
</g>
<defs>
<filter id="filter0_d_2008_468" x="0" y="0" width="707" height="208" filterUnits="userSpaceOnUse" color-interpolation-filters="sRGB">
<feFlood flood-opacity="0" result="BackgroundImageFix"/>
<feColorMatrix in="SourceAlpha" type="matrix" values="0 0 0 0 0 0 0 0 0 0 0 0 0 0 0 0 0 0 127 0" result="hardAlpha"/>
<feOffset dy="4"/>
<feGaussianBlur stdDeviation="2"/>
<feComposite in2="hardAlpha" operator="out"/>
<feColorMatrix type="matrix" values="0 0 0 0 0 0 0 0 0 0 0 0 0 0 0 0 0 0 0.25 0"/>
<feBlend mode="normal" in2="BackgroundImageFix" result="effect1_dropShadow_2008_468"/>
<feBlend mode="normal" in="SourceGraphic" in2="effect1_dropShadow_2008_468" result="shape"/>
</filter>
<clipPath id="clip0_2008_468">
<rect width="699" height="200" fill="white" transform="translate(4)"/>
</clipPath>
</defs>
</svg>
