<svg width="748" height="202" viewBox="0 0 748 202" fill="none" xmlns="http://www.w3.org/2000/svg">
<g clip-path="url(#clip0_2008_534)" filter="url(#filter0_d_2008_534)">
<mask id="mask0_2008_534" style="mask-type:luminance" maskUnits="userSpaceOnUse" x="4" y="0" width="740" height="200">
<path d="M744 0H4V200H744V0Z" fill="white"/>
</mask>
<g mask="url(#mask0_2008_534)">
<path fill-rule="evenodd" clip-rule="evenodd" d="M69.3409 78.6901C66.4204 72.6221 65.1184 65.9022 65.5612 59.1826C66.004 52.4629 68.1765 45.9719 71.8679 40.3396C75.5593 34.7073 80.6442 30.1251 86.629 27.0377C92.6137 23.9503 99.2951 22.4626 106.024 22.7191C112.754 22.9756 119.302 24.9676 125.035 28.5016C130.767 32.0356 135.488 36.9916 138.74 42.8885C141.992 48.7855 143.665 55.423 143.595 62.1569C143.525 68.8907 141.715 75.4921 138.341 81.3201L106.821 136L116.271 152.37L152.551 89.5301C159.712 76.8108 161.566 61.7803 157.712 47.7018C153.858 33.6233 144.607 21.6332 131.966 14.3345C119.325 7.03585 104.316 5.01775 90.1963 8.71837C76.0767 12.419 63.9866 21.5396 56.5509 34.1001C52.6019 40.8482 50.1429 48.3634 49.3391 56.1406C48.5353 63.9178 49.4054 71.777 51.8909 79.1901C54.4186 78.8737 56.9634 78.7134 59.5109 78.7101L69.3409 78.6901ZM196.491 110.49C192.573 103.613 187.212 97.6655 180.777 93.058C174.341 88.4505 166.984 85.2921 159.211 83.8C158.224 86.1582 157.092 88.4526 155.821 90.67L150.881 99.22C157.623 99.6342 164.142 101.79 169.802 105.476C175.462 109.162 180.07 114.254 183.175 120.252C186.28 126.251 187.776 132.953 187.517 139.703C187.258 146.452 185.254 153.02 181.699 158.763C178.144 164.507 173.16 169.23 167.235 172.473C161.309 175.715 154.644 177.365 147.89 177.262C141.136 177.159 134.524 175.306 128.7 171.885C122.876 168.463 118.039 163.589 114.661 157.74L83.1908 103.24H64.3008L100.481 165.92C101.725 168.059 103.104 170.117 104.611 172.08L104.911 172.47C110.064 179.103 116.673 184.461 124.229 188.13C131.784 191.8 140.082 193.681 148.481 193.63C158.21 193.629 167.767 191.067 176.192 186.202C184.617 181.337 191.614 174.34 196.478 165.915C201.343 157.489 203.904 147.932 203.904 138.203C203.905 128.474 201.344 118.916 196.481 110.49H196.491ZM77.5571 172.852C83.4675 169.772 88.4914 165.231 92.1504 159.66L96.9404 168C98.2662 170.286 99.7428 172.481 101.36 174.57C96.1834 180.591 89.7591 185.414 82.5327 188.705C75.3064 191.996 67.4508 193.677 59.5104 193.63C52.1693 193.729 44.8817 192.368 38.0707 189.627C31.2598 186.886 25.0613 182.819 19.8351 177.662C14.6089 172.506 10.4592 166.363 7.62681 159.589C4.79446 152.816 3.33594 145.547 3.33594 138.205C3.33594 130.863 4.79446 123.595 7.62681 116.821C10.4592 110.048 14.6089 103.904 19.8351 98.7479C25.0613 93.5914 31.2598 89.5245 38.0707 86.7834C44.8817 84.0423 52.1693 82.6815 59.5104 82.7801H132L122.58 99.1402H59.5104C52.6543 99.1434 45.9197 100.951 39.9832 104.381C34.0466 107.811 29.1173 112.742 25.6901 118.681C22.263 124.619 20.4589 131.354 20.4589 138.21C20.459 145.067 22.2632 151.802 25.6904 157.74C29.0218 163.513 33.7751 168.336 39.4979 171.752C45.2207 175.168 51.7225 177.062 58.3844 177.255C65.0463 177.447 71.6467 175.931 77.5571 172.852Z" fill="#B0B0B0"/>
<path d="M340.163 162.02L337.283 148.34L335.843 147.8C334.763 148.52 333.323 149.06 331.703 149.06C328.823 149.06 326.303 147.44 323.243 144.02L297.323 113.6L332.963 75.26L332.423 74H311.363L274.103 115.04V42.32L272.663 41.24L254.483 43.94V164H274.103V134.12L282.923 124.58L308.303 155.18C313.703 161.84 320.543 166.16 329.183 166.16C333.683 166.16 337.103 165.08 339.443 163.46L340.163 162.02Z" fill="#B0B0B0"/>
<path fill-rule="evenodd" clip-rule="evenodd" d="M596.442 71.8399C623.802 71.8399 642.342 92.7199 642.342 119C642.342 145.28 623.802 166.16 596.442 166.16C583.662 166.16 572.862 160.94 565.122 153.02V164H547.482V44.1199L565.842 41.4199L567.102 42.3199V83.1799C574.662 76.1599 584.742 71.8399 596.442 71.8399ZM594.102 149.06C611.022 149.06 622.182 135.74 622.182 119C622.182 102.44 611.022 88.9399 594.102 88.9399C578.262 88.9399 565.662 99.3799 565.662 119C565.662 138.62 578.262 149.06 594.102 149.06Z" fill="#B0B0B0"/>
<path fill-rule="evenodd" clip-rule="evenodd" d="M740.421 148.52L743.301 161.84L742.581 163.1C740.061 164.9 736.281 166.16 731.781 166.16C723.681 166.16 717.741 161.84 715.401 154.46C707.661 161.84 696.501 166.16 684.621 166.16C666.081 166.16 648.981 155.9 648.981 136.46C648.981 116.48 666.981 107.3 689.121 107.3C698.841 107.3 706.401 109.1 712.881 111.44V106.4C712.881 93.4401 701.181 87.1401 688.761 87.1401C678.501 87.1401 670.581 91.4601 664.281 97.5801H662.841L652.941 88.2201V86.7801C662.661 77.4201 675.081 71.8401 690.561 71.8401C710.001 71.8401 732.141 80.4801 732.141 106.4V141.14C732.141 146 733.041 149.06 736.281 149.06C737.541 149.06 738.441 148.52 739.161 147.98L740.421 148.52ZM712.881 131.42V124.76C708.201 122.96 700.461 120.62 691.641 120.62C677.421 120.62 668.601 126.74 668.601 136.46C668.601 146.72 678.321 151.76 688.581 151.76C701.001 151.76 712.881 144.02 712.881 131.42Z" fill="#B0B0B0"/>
<path d="M529.775 109.82C529.775 87.3201 515.195 71.8401 492.335 71.8401C480.275 71.8401 470.015 76.1601 462.995 83.1801C460.655 75.9801 455.075 71.8401 446.795 71.8401C442.115 71.8401 438.155 73.1001 435.635 74.9001L434.915 76.1601L437.795 89.4801L439.055 90.0201C439.775 89.4801 440.675 88.9401 441.935 88.9401C445.355 88.9401 446.075 92.0001 446.075 96.8601V164H465.875V111.44C465.875 97.7601 475.055 88.7601 488.555 88.7601C502.055 88.7601 510.155 97.7601 510.155 111.44V164H529.775V109.82Z" fill="#B0B0B0"/>
<path fill-rule="evenodd" clip-rule="evenodd" d="M430.02 148.52L432.9 161.84L432.18 163.1C429.66 164.9 425.88 166.16 421.38 166.16C413.28 166.16 407.34 161.84 405 154.46C397.26 161.84 386.1 166.16 374.22 166.16C355.68 166.16 338.58 155.9 338.58 136.46C338.58 116.48 356.58 107.3 378.72 107.3C388.44 107.3 396 109.1 402.48 111.44V106.4C402.48 93.4401 390.78 87.1401 378.36 87.1401C368.1 87.1401 360.18 91.4601 353.88 97.5801H352.44L342.54 88.2201V86.7801C352.26 77.4201 364.68 71.8401 380.16 71.8401C399.6 71.8401 421.74 80.4801 421.74 106.4V141.14C421.74 146 422.64 149.06 425.88 149.06C427.14 149.06 428.04 148.52 428.76 147.98L430.02 148.52ZM402.48 131.42V124.76C397.8 122.96 390.06 120.62 381.24 120.62C367.02 120.62 358.2 126.74 358.2 136.46C358.2 146.72 367.92 151.76 378.18 151.76C390.6 151.76 402.48 144.02 402.48 131.42Z" fill="#B0B0B0"/>
</g>
</g>
<defs>
<filter id="filter0_d_2008_534" x="0" y="0" width="748" height="208" filterUnits="userSpaceOnUse" color-interpolation-filters="sRGB">
<feFlood flood-opacity="0" result="BackgroundImageFix"/>
<feColorMatrix in="SourceAlpha" type="matrix" values="0 0 0 0 0 0 0 0 0 0 0 0 0 0 0 0 0 0 127 0" result="hardAlpha"/>
<feOffset dy="4"/>
<feGaussianBlur stdDeviation="2"/>
<feComposite in2="hardAlpha" operator="out"/>
<feColorMatrix type="matrix" values="0 0 0 0 0 0 0 0 0 0 0 0 0 0 0 0 0 0 0.25 0"/>
<feBlend mode="normal" in2="BackgroundImageFix" result="effect1_dropShadow_2008_534"/>
<feBlend mode="normal" in="SourceGraphic" in2="effect1_dropShadow_2008_534" result="shape"/>
</filter>
<clipPath id="clip0_2008_534">
<rect width="740" height="200" fill="white" transform="translate(4)"/>
</clipPath>
</defs>
</svg>
