<svg width="408" height="479" viewBox="0 0 408 479" fill="none" xmlns="http://www.w3.org/2000/svg">
<g filter="url(#filter0_d_2_551)">
<rect x="50" y="40" width="308" height="379" rx="40" fill="white"/>
<rect x="50.5" y="40.5" width="307" height="378" rx="39.5" stroke="#F2F2F2"/>
</g>
<rect x="144" y="79" width="121" height="121" rx="20" fill="#F1F7FF"/>
<path d="M89.0202 323.64L92.6362 335H93.9802L96.6522 325.672H96.6842L99.3082 335H100.652L104.284 323.64H102.812L99.9962 332.728H99.9642L97.4202 323.64H95.9002L93.3402 332.744H93.3082L90.5082 323.64H89.0202ZM111.98 330.968C111.98 328.744 110.524 327.112 108.396 327.112C106.172 327.112 104.556 328.76 104.556 331.112C104.556 333.496 106.188 335.096 108.492 335.096C110.06 335.096 111.036 334.504 111.708 333.64L110.796 332.872C110.316 333.464 109.58 333.912 108.54 333.912C107.068 333.912 106.044 332.952 105.868 331.496H111.948C111.948 331.4 111.98 331.176 111.98 330.968ZM108.38 328.296C109.66 328.296 110.492 329.16 110.684 330.44H105.9C106.14 329.112 107.132 328.296 108.38 328.296ZM118.239 327.208V338.168H119.535V333.656H119.551C120.127 334.552 121.087 335.096 122.319 335.096C124.463 335.096 126.111 333.528 126.111 331.16C126.111 328.856 124.527 327.112 122.319 327.112C121.135 327.112 120.143 327.656 119.551 328.584H119.535V327.208H118.239ZM122.143 333.912C120.655 333.912 119.471 332.808 119.471 331.16C119.471 329.56 120.543 328.296 122.127 328.296C123.599 328.296 124.799 329.432 124.799 331.16C124.799 332.728 123.711 333.912 122.143 333.912ZM128.068 327.208V335H129.364V331.24C129.364 329.672 130.244 328.536 131.732 328.536C131.86 328.536 132.052 328.552 132.244 328.568V327.128C132.132 327.112 132.036 327.112 131.924 327.112C130.852 327.112 129.956 327.688 129.396 328.632H129.364V327.208H128.068ZM140.386 330.968C140.386 328.744 138.93 327.112 136.802 327.112C134.578 327.112 132.962 328.76 132.962 331.112C132.962 333.496 134.594 335.096 136.898 335.096C138.466 335.096 139.442 334.504 140.114 333.64L139.202 332.872C138.722 333.464 137.986 333.912 136.946 333.912C135.474 333.912 134.45 332.952 134.274 331.496H140.354C140.354 331.4 140.386 331.176 140.386 330.968ZM136.786 328.296C138.066 328.296 138.898 329.16 139.09 330.44H134.306C134.546 329.112 135.538 328.296 136.786 328.296ZM144.638 335.096C146.51 335.096 147.438 334.088 147.438 332.872C147.454 331.352 146.366 331.064 144.718 330.424C143.87 330.12 143.246 329.816 143.246 329.208C143.246 328.616 143.838 328.264 144.446 328.264C145.118 328.264 145.838 328.472 146.51 329.096L147.182 328.072C146.318 327.368 145.438 327.112 144.494 327.112C143.022 327.112 141.934 328.008 141.934 329.208C141.934 330.632 143.006 331.144 144.27 331.592C145.406 332.008 146.126 332.2 146.126 332.888C146.126 333.48 145.582 333.944 144.638 333.944C143.55 333.944 142.862 333.592 142.254 333L141.598 333.992C142.35 334.648 143.342 335.096 144.638 335.096ZM156.199 330.968C156.199 328.744 154.743 327.112 152.615 327.112C150.391 327.112 148.775 328.76 148.775 331.112C148.775 333.496 150.407 335.096 152.711 335.096C154.279 335.096 155.255 334.504 155.927 333.64L155.015 332.872C154.535 333.464 153.799 333.912 152.759 333.912C151.287 333.912 150.263 332.952 150.087 331.496H156.167C156.167 331.4 156.199 331.176 156.199 330.968ZM152.599 328.296C153.879 328.296 154.711 329.16 154.903 330.44H150.119C150.359 329.112 151.351 328.296 152.599 328.296ZM158.099 327.208V335H159.395V331.112C159.395 329.352 160.355 328.296 161.827 328.296C162.963 328.296 163.747 328.92 163.747 330.744V335H165.043V330.376C165.043 328.152 163.923 327.112 162.243 327.112C161.043 327.112 160.019 327.672 159.411 328.616H159.395V327.208H158.099ZM169.51 335.096C170.438 335.096 170.966 334.872 171.398 334.616L171.062 333.48C170.678 333.688 170.198 333.88 169.734 333.88C168.998 333.88 168.79 333.432 168.79 332.488V328.328H171.366V327.208H168.79V324.408L167.494 324.552V327.208H166.486V328.328H167.494V332.68C167.494 334.248 168.134 335.096 169.51 335.096ZM179.906 334.696L178.514 338.168H179.858L184.274 327.208H182.914L180.562 333.128H180.53L178.002 327.208H176.594L179.906 334.696ZM188.979 335.096C191.283 335.096 192.995 333.48 192.995 331.112C192.995 328.744 191.283 327.112 188.979 327.112C186.563 327.112 184.947 328.872 184.947 331.112C184.947 333.352 186.563 335.096 188.979 335.096ZM188.979 333.912C187.363 333.912 186.275 332.664 186.275 331.112C186.275 329.56 187.347 328.296 188.979 328.296C190.483 328.296 191.667 329.448 191.667 331.112C191.667 332.776 190.467 333.912 188.979 333.912ZM197.679 335.096C198.703 335.096 199.663 334.584 200.255 333.656H200.271V335H201.567V327.208H200.271V330.984C200.271 332.84 199.199 333.912 197.951 333.912C196.719 333.912 196.047 333.24 196.047 331.48V327.208H194.751V331.848C194.751 334.072 195.887 335.096 197.679 335.096ZM211.551 335.096C212.815 335.096 213.775 334.52 214.335 333.592H214.351V335H215.599V327.208H214.303V328.584L214.271 328.6C213.711 327.656 212.703 327.112 211.551 327.112C209.343 327.112 207.759 328.856 207.759 331.16C207.759 333.528 209.407 335.096 211.551 335.096ZM211.743 333.912C210.143 333.912 209.071 332.728 209.071 331.16C209.071 329.432 210.271 328.296 211.743 328.296C213.279 328.296 214.351 329.56 214.351 331.16C214.351 332.808 213.183 333.912 211.743 333.912ZM222.286 327.208V338.168H223.582V333.656H223.598C224.174 334.552 225.134 335.096 226.366 335.096C228.51 335.096 230.158 333.528 230.158 331.16C230.158 328.856 228.574 327.112 226.366 327.112C225.182 327.112 224.19 327.656 223.598 328.584H223.582V327.208H222.286ZM226.19 333.912C224.702 333.912 223.518 332.808 223.518 331.16C223.518 329.56 224.59 328.296 226.174 328.296C227.646 328.296 228.846 329.432 228.846 331.16C228.846 332.728 227.758 333.912 226.19 333.912ZM232.114 327.208V335H233.41V331.24C233.41 329.672 234.29 328.536 235.778 328.536C235.906 328.536 236.098 328.552 236.29 328.568V327.128C236.178 327.112 236.082 327.112 235.97 327.112C234.898 327.112 234.002 327.688 233.442 328.632H233.41V327.208H232.114ZM241.041 335.096C243.345 335.096 245.057 333.48 245.057 331.112C245.057 328.744 243.345 327.112 241.041 327.112C238.625 327.112 237.009 328.872 237.009 331.112C237.009 333.352 238.625 335.096 241.041 335.096ZM241.041 333.912C239.425 333.912 238.337 332.664 238.337 331.112C238.337 329.56 239.409 328.296 241.041 328.296C242.545 328.296 243.729 329.448 243.729 331.112C243.729 332.776 242.529 333.912 241.041 333.912ZM246.989 327.208V338.168H248.285V333.656H248.301C248.877 334.552 249.837 335.096 251.069 335.096C253.213 335.096 254.861 333.528 254.861 331.16C254.861 328.856 253.277 327.112 251.069 327.112C249.885 327.112 248.893 327.656 248.301 328.584H248.285V327.208H246.989ZM250.893 333.912C249.405 333.912 248.221 332.808 248.221 331.16C248.221 329.56 249.293 328.296 250.877 328.296C252.349 328.296 253.549 329.432 253.549 331.16C253.549 332.728 252.461 333.912 250.893 333.912ZM260.354 335.096C262.658 335.096 264.37 333.48 264.37 331.112C264.37 328.744 262.658 327.112 260.354 327.112C257.938 327.112 256.322 328.872 256.322 331.112C256.322 333.352 257.938 335.096 260.354 335.096ZM260.354 333.912C258.738 333.912 257.65 332.664 257.65 331.112C257.65 329.56 258.722 328.296 260.354 328.296C261.858 328.296 263.042 329.448 263.042 331.112C263.042 332.776 261.842 333.912 260.354 333.912ZM268.654 335.096C270.526 335.096 271.454 334.088 271.454 332.872C271.47 331.352 270.382 331.064 268.734 330.424C267.886 330.12 267.262 329.816 267.262 329.208C267.262 328.616 267.854 328.264 268.462 328.264C269.134 328.264 269.854 328.472 270.526 329.096L271.198 328.072C270.334 327.368 269.454 327.112 268.51 327.112C267.038 327.112 265.95 328.008 265.95 329.208C265.95 330.632 267.022 331.144 268.286 331.592C269.422 332.008 270.142 332.2 270.142 332.888C270.142 333.48 269.598 333.944 268.654 333.944C267.566 333.944 266.878 333.592 266.27 333L265.614 333.992C266.366 334.648 267.358 335.096 268.654 335.096ZM276.379 335.096C277.643 335.096 278.603 334.52 279.163 333.592H279.179V335H280.427V327.208H279.131V328.584L279.099 328.6C278.539 327.656 277.531 327.112 276.379 327.112C274.171 327.112 272.587 328.856 272.587 331.16C272.587 333.528 274.235 335.096 276.379 335.096ZM276.571 333.912C274.971 333.912 273.899 332.728 273.899 331.16C273.899 329.432 275.099 328.296 276.571 328.296C278.107 328.296 279.179 329.56 279.179 331.16C279.179 332.808 278.011 333.912 276.571 333.912ZM282.851 323.224V335H284.147V323.224H282.851ZM294.316 335.096C295.58 335.096 296.54 334.52 297.1 333.592H297.116V335H298.364V327.208H297.068V328.584L297.036 328.6C296.476 327.656 295.468 327.112 294.316 327.112C292.108 327.112 290.524 328.856 290.524 331.16C290.524 333.528 292.172 335.096 294.316 335.096ZM294.508 333.912C292.908 333.912 291.836 332.728 291.836 331.16C291.836 329.432 293.036 328.296 294.508 328.296C296.044 328.296 297.116 329.56 297.116 331.16C297.116 332.808 295.948 333.912 294.508 333.912ZM300.693 327.208V335H301.989V331.112C301.989 329.352 302.949 328.296 304.421 328.296C305.557 328.296 306.341 328.92 306.341 330.744V335H307.637V330.376C307.637 328.152 306.517 327.112 304.837 327.112C303.637 327.112 302.613 327.672 302.005 328.616H301.989V327.208H300.693ZM313.223 335.096C314.487 335.096 315.479 334.504 316.039 333.56H316.055V335H317.303V323.224H316.007V328.6H315.991C315.399 327.656 314.391 327.112 313.207 327.112C311.015 327.112 309.399 328.856 309.399 331.16C309.399 333.528 311.063 335.096 313.223 335.096ZM313.399 333.912C311.815 333.912 310.727 332.728 310.727 331.16C310.727 329.432 311.927 328.296 313.415 328.296C314.983 328.296 316.055 329.56 316.055 331.16C316.055 332.808 314.871 333.912 313.399 333.912ZM123.7 357.096C124.964 357.096 125.956 356.504 126.516 355.56H126.532V357H127.78V345.224H126.484V350.6H126.468C125.876 349.656 124.868 349.112 123.684 349.112C121.492 349.112 119.876 350.856 119.876 353.16C119.876 355.528 121.54 357.096 123.7 357.096ZM123.876 355.912C122.292 355.912 121.204 354.728 121.204 353.16C121.204 351.432 122.404 350.296 123.892 350.296C125.46 350.296 126.532 351.56 126.532 353.16C126.532 354.808 125.348 355.912 123.876 355.912ZM130.952 347.784C131.48 347.784 131.896 347.368 131.896 346.856C131.896 346.344 131.48 345.928 130.952 345.928C130.424 345.928 130.008 346.344 130.008 346.856C130.008 347.368 130.424 347.784 130.952 347.784ZM130.296 349.208V357H131.592V349.208H130.296ZM136.474 357.096C138.346 357.096 139.274 356.088 139.274 354.872C139.29 353.352 138.202 353.064 136.554 352.424C135.706 352.12 135.082 351.816 135.082 351.208C135.082 350.616 135.674 350.264 136.282 350.264C136.954 350.264 137.674 350.472 138.346 351.096L139.018 350.072C138.154 349.368 137.274 349.112 136.33 349.112C134.858 349.112 133.77 350.008 133.77 351.208C133.77 352.632 134.842 353.144 136.106 353.592C137.242 354.008 137.962 354.2 137.962 354.888C137.962 355.48 137.418 355.944 136.474 355.944C135.386 355.944 134.698 355.592 134.09 355L133.434 355.992C134.186 356.648 135.178 357.096 136.474 357.096ZM144.499 357.096C146.019 357.096 147.059 356.52 147.715 355.736L146.819 354.92C146.339 355.512 145.523 355.912 144.595 355.912C143.011 355.912 141.939 354.776 141.939 353.112C141.939 351.464 143.011 350.296 144.611 350.296C145.539 350.296 146.307 350.712 146.803 351.288L147.683 350.504C146.915 349.592 145.715 349.112 144.547 349.112C142.227 349.112 140.611 350.76 140.611 353.112C140.611 355.48 142.227 357.096 144.499 357.096ZM152.202 357.096C153.226 357.096 154.186 356.584 154.778 355.656H154.794V357H156.09V349.208H154.794V352.984C154.794 354.84 153.722 355.912 152.474 355.912C151.242 355.912 150.57 355.24 150.57 353.48V349.208H149.274V353.848C149.274 356.072 150.41 357.096 152.202 357.096ZM160.787 357.096C162.659 357.096 163.587 356.088 163.587 354.872C163.603 353.352 162.515 353.064 160.867 352.424C160.019 352.12 159.395 351.816 159.395 351.208C159.395 350.616 159.987 350.264 160.595 350.264C161.267 350.264 161.987 350.472 162.659 351.096L163.331 350.072C162.467 349.368 161.587 349.112 160.643 349.112C159.171 349.112 158.083 350.008 158.083 351.208C158.083 352.632 159.155 353.144 160.419 353.592C161.555 354.008 162.275 354.2 162.275 354.888C162.275 355.48 161.731 355.944 160.787 355.944C159.699 355.944 159.011 355.592 158.403 355L157.747 355.992C158.499 356.648 159.491 357.096 160.787 357.096ZM167.771 357.096C169.643 357.096 170.571 356.088 170.571 354.872C170.587 353.352 169.499 353.064 167.851 352.424C167.003 352.12 166.379 351.816 166.379 351.208C166.379 350.616 166.971 350.264 167.579 350.264C168.251 350.264 168.971 350.472 169.643 351.096L170.315 350.072C169.451 349.368 168.571 349.112 167.627 349.112C166.155 349.112 165.067 350.008 165.067 351.208C165.067 352.632 166.139 353.144 167.403 353.592C168.539 354.008 169.259 354.2 169.259 354.888C169.259 355.48 168.715 355.944 167.771 355.944C166.683 355.944 165.995 355.592 165.387 355L164.731 355.992C165.483 356.648 166.475 357.096 167.771 357.096ZM176.763 349.208V357H178.059V353.112C178.059 351.352 179.019 350.296 180.491 350.296C181.627 350.296 182.411 350.92 182.411 352.744V357H183.707V352.376C183.707 350.152 182.587 349.112 180.907 349.112C179.707 349.112 178.683 349.672 178.075 350.616H178.059V349.208H176.763ZM186.734 347.784C187.262 347.784 187.678 347.368 187.678 346.856C187.678 346.344 187.262 345.928 186.734 345.928C186.206 345.928 185.79 346.344 185.79 346.856C185.79 347.368 186.206 347.784 186.734 347.784ZM186.078 349.208V357H187.374V349.208H186.078ZM190.224 350.328V357H191.52V350.328H193.728V349.208H191.52V347.752C191.52 346.728 191.936 346.312 192.576 346.312C193.008 346.312 193.44 346.472 193.936 346.728L194.224 345.624C193.792 345.352 193.2 345.112 192.416 345.112C191.024 345.112 190.224 345.96 190.224 347.624V349.208H189.28V350.328H190.224ZM195.536 350.328V357H196.832V350.328H199.04V349.208H196.832V347.752C196.832 346.728 197.248 346.312 197.888 346.312C198.32 346.312 198.752 346.472 199.248 346.728L199.536 345.624C199.104 345.352 198.512 345.112 197.728 345.112C196.336 345.112 195.536 345.96 195.536 347.624V349.208H194.592V350.328H195.536ZM202.658 357.096C203.586 357.096 204.114 356.872 204.546 356.616L204.21 355.48C203.826 355.688 203.346 355.88 202.882 355.88C202.146 355.88 201.938 355.432 201.938 354.488V350.328H204.514V349.208H201.938V346.408L200.642 346.552V349.208H199.634V350.328H200.642V354.68C200.642 356.248 201.282 357.096 202.658 357.096ZM208.695 356.696L207.303 360.168H208.647L213.063 349.208H211.703L209.351 355.128H209.319L206.791 349.208H205.383L208.695 356.696ZM214.099 351.432V352.712H218.835V351.432H214.099ZM224.375 360.264C227.095 360.264 228.215 358.664 228.215 356.424V349.208H226.919V350.456H226.887C226.263 349.608 225.255 349.112 224.151 349.112C221.959 349.112 220.423 350.776 220.423 353C220.423 355.32 222.071 356.856 224.199 356.856C225.399 356.856 226.327 356.328 226.903 355.496H226.935V356.744C226.935 358.056 226.087 359.08 224.327 359.08C223.207 359.08 222.423 358.776 221.527 358.264L221.207 359.416C222.135 359.976 223.207 360.264 224.375 360.264ZM224.359 355.656C222.887 355.656 221.735 354.616 221.735 352.968C221.735 351.448 222.791 350.312 224.375 350.312C225.831 350.312 226.967 351.368 226.967 352.936C226.967 354.488 225.927 355.656 224.359 355.656ZM230.529 349.208V357H231.825V353.24C231.825 351.672 232.705 350.536 234.193 350.536C234.321 350.536 234.513 350.552 234.705 350.568V349.128C234.593 349.112 234.497 349.112 234.385 349.112C233.312 349.112 232.417 349.688 231.857 350.632H231.825V349.208H230.529ZM236.921 347.784C237.449 347.784 237.865 347.368 237.865 346.856C237.865 346.344 237.449 345.928 236.921 345.928C236.393 345.928 235.977 346.344 235.977 346.856C235.977 347.368 236.393 347.784 236.921 347.784ZM236.265 349.208V357H237.561V349.208H236.265ZM242.283 357.096C243.211 357.096 243.739 356.872 244.171 356.616L243.835 355.48C243.451 355.688 242.971 355.88 242.507 355.88C241.771 355.88 241.563 355.432 241.563 354.488V350.328H244.139V349.208H241.563V346.408L240.267 346.552V349.208H239.259V350.328H240.267V354.68C240.267 356.248 240.907 357.096 242.283 357.096ZM248.142 357.096C249.07 357.096 249.598 356.872 250.03 356.616L249.694 355.48C249.31 355.688 248.83 355.88 248.366 355.88C247.63 355.88 247.422 355.432 247.422 354.488V350.328H249.998V349.208H247.422V346.408L246.126 346.552V349.208H245.118V350.328H246.126V354.68C246.126 356.248 246.766 357.096 248.142 357.096ZM254.18 356.696L252.788 360.168H254.132L258.548 349.208H257.188L254.836 355.128H254.804L252.276 349.208H250.868L254.18 356.696ZM264.593 345.224V357H265.889V345.224H264.593ZM269.171 347.784C269.699 347.784 270.115 347.368 270.115 346.856C270.115 346.344 269.699 345.928 269.171 345.928C268.643 345.928 268.227 346.344 268.227 346.856C268.227 347.368 268.643 347.784 269.171 347.784ZM268.515 349.208V357H269.811V349.208H268.515ZM272.341 345.224V357H273.637V355.064L275.237 353.336L277.589 357H279.077L276.133 352.424L279.045 349.208H277.477L273.653 353.48L273.637 353.464V345.224H272.341ZM287.144 352.968C287.144 350.744 285.688 349.112 283.56 349.112C281.336 349.112 279.72 350.76 279.72 353.112C279.72 355.496 281.352 357.096 283.656 357.096C285.224 357.096 286.2 356.504 286.872 355.64L285.96 354.872C285.48 355.464 284.744 355.912 283.704 355.912C282.232 355.912 281.208 354.952 281.032 353.496H287.112C287.112 353.4 287.144 353.176 287.144 352.968ZM283.544 350.296C284.824 350.296 285.656 351.16 285.848 352.44H281.064C281.304 351.112 282.296 350.296 283.544 350.296Z" fill="#757575"/>
<path d="M204.998 144.008C204.597 144.008 204.196 143.916 203.826 143.7L176.601 127.944C175.491 127.296 175.12 125.878 175.768 124.768C176.415 123.658 177.803 123.288 178.944 123.935L204.998 139.013L230.898 124.028C232.008 123.381 233.426 123.781 234.074 124.861C234.721 125.971 234.321 127.389 233.241 128.036L206.201 143.7C205.8 143.885 205.399 144.008 204.998 144.008Z" fill="#2639ED"/>
<path d="M205 171.943C203.736 171.943 202.688 170.895 202.688 169.631V141.665C202.688 140.401 203.736 139.352 205 139.352C206.264 139.352 207.312 140.401 207.312 141.665V169.631C207.312 170.895 206.264 171.943 205 171.943Z" fill="#2639ED"/>
<path d="M204.997 173.146C202.191 173.146 199.508 172.499 197.473 171.358L181.008 162.232C176.537 159.765 173.022 153.814 173.022 148.696V131.244C173.022 126.126 176.537 120.206 181.008 117.708L197.473 108.582C201.667 106.238 208.265 106.238 212.489 108.582L228.954 117.708C233.425 120.175 236.94 126.126 236.94 131.244V142.529C236.94 143.793 235.892 144.841 234.627 144.841C233.363 144.841 232.315 143.793 232.315 142.529V131.244C232.315 127.852 229.694 123.412 226.734 121.778L210.269 112.652C207.463 111.079 202.561 111.079 199.755 112.652L183.29 121.778C180.299 123.443 177.709 127.852 177.709 131.244V148.696C177.709 152.087 180.33 156.528 183.29 158.162L199.755 167.288C202.468 168.799 207.587 168.799 210.269 167.288C211.379 166.671 212.797 167.073 213.414 168.183C214.031 169.293 213.63 170.711 212.52 171.327C210.485 172.499 207.802 173.146 204.997 173.146Z" fill="#2639ED"/>
<path d="M227.2 171.296C220.478 171.296 215.021 165.838 215.021 159.117C215.021 152.395 220.478 146.938 227.2 146.938C233.922 146.938 239.379 152.395 239.379 159.117C239.379 165.838 233.922 171.296 227.2 171.296ZM227.2 151.562C223.038 151.562 219.646 154.954 219.646 159.117C219.646 163.279 223.038 166.671 227.2 166.671C231.363 166.671 234.754 163.279 234.754 159.117C234.754 154.954 231.363 151.562 227.2 151.562Z" fill="#2639ED"/>
<path d="M238.915 173.146C238.329 173.146 237.743 172.93 237.281 172.467L234.198 169.384C233.303 168.49 233.303 167.01 234.198 166.116C235.092 165.221 236.572 165.221 237.466 166.116L240.549 169.199C241.443 170.093 241.443 171.573 240.549 172.467C240.087 172.93 239.501 173.146 238.915 173.146Z" fill="#2639ED"/>
<mask id="path-10-outside-1_2_551" maskUnits="userSpaceOnUse" x="130" y="237" width="147" height="54" fill="black">
<rect fill="white" x="130" y="237" width="147" height="54"/>
<path d="M131.292 237.96V255H137.508C141.372 255 143.196 253.08 143.196 250.368C143.196 247.896 141.636 246.456 139.644 246.048V246C141.492 245.352 142.356 243.768 142.356 242.112C142.356 239.208 140.172 237.96 136.86 237.96H131.292ZM136.884 245.304H133.38V239.856L136.644 239.832C139.14 239.832 140.22 240.888 140.22 242.52C140.22 244.584 138.636 245.304 136.884 245.304ZM137.316 253.104H133.38V247.128H137.004C139.644 247.128 141.012 248.28 141.012 250.2C141.012 252.168 139.548 253.104 137.316 253.104ZM150.366 255.144C151.902 255.144 153.342 254.376 154.23 252.984H154.254V255H156.198V243.312H154.254V248.976C154.254 251.76 152.646 253.368 150.774 253.368C148.926 253.368 147.918 252.36 147.918 249.72V243.312H145.974V250.272C145.974 253.608 147.678 255.144 150.366 255.144ZM163.243 255.144C166.051 255.144 167.443 253.632 167.443 251.808C167.467 249.528 165.835 249.096 163.363 248.136C162.091 247.68 161.155 247.224 161.155 246.312C161.155 245.424 162.043 244.896 162.955 244.896C163.963 244.896 165.043 245.208 166.051 246.144L167.059 244.608C165.763 243.552 164.443 243.168 163.027 243.168C160.819 243.168 159.187 244.512 159.187 246.312C159.187 248.448 160.795 249.216 162.691 249.888C164.395 250.512 165.475 250.8 165.475 251.832C165.475 252.72 164.659 253.416 163.243 253.416C161.611 253.416 160.579 252.888 159.667 252L158.683 253.488C159.811 254.472 161.299 255.144 163.243 255.144ZM171.319 241.176C172.111 241.176 172.735 240.552 172.735 239.784C172.735 239.016 172.111 238.392 171.319 238.392C170.527 238.392 169.903 239.016 169.903 239.784C169.903 240.552 170.527 241.176 171.319 241.176ZM170.335 243.312V255H172.279V243.312H170.335ZM176.074 243.312V255H178.018V249.168C178.018 246.528 179.458 244.944 181.666 244.944C183.37 244.944 184.546 245.88 184.546 248.616V255H186.49V248.064C186.49 244.728 184.81 243.168 182.29 243.168C180.49 243.168 178.954 244.008 178.042 245.424H178.018V243.312H176.074ZM200.294 248.952C200.294 245.616 198.11 243.168 194.918 243.168C191.582 243.168 189.158 245.64 189.158 249.168C189.158 252.744 191.606 255.144 195.062 255.144C197.414 255.144 198.878 254.256 199.886 252.96L198.518 251.808C197.798 252.696 196.694 253.368 195.134 253.368C192.926 253.368 191.39 251.928 191.126 249.744H200.246C200.246 249.6 200.294 249.264 200.294 248.952ZM194.894 244.944C196.814 244.944 198.062 246.24 198.35 248.16H191.174C191.534 246.168 193.022 244.944 194.894 244.944ZM206.672 255.144C209.48 255.144 210.872 253.632 210.872 251.808C210.896 249.528 209.264 249.096 206.792 248.136C205.52 247.68 204.584 247.224 204.584 246.312C204.584 245.424 205.472 244.896 206.384 244.896C207.392 244.896 208.472 245.208 209.48 246.144L210.488 244.608C209.192 243.552 207.872 243.168 206.456 243.168C204.248 243.168 202.616 244.512 202.616 246.312C202.616 248.448 204.224 249.216 206.12 249.888C207.824 250.512 208.904 250.8 208.904 251.832C208.904 252.72 208.088 253.416 206.672 253.416C205.04 253.416 204.008 252.888 203.096 252L202.112 253.488C203.24 254.472 204.728 255.144 206.672 255.144ZM217.149 255.144C219.957 255.144 221.349 253.632 221.349 251.808C221.373 249.528 219.741 249.096 217.269 248.136C215.997 247.68 215.061 247.224 215.061 246.312C215.061 245.424 215.949 244.896 216.861 244.896C217.869 244.896 218.949 245.208 219.957 246.144L220.965 244.608C219.669 243.552 218.349 243.168 216.933 243.168C214.725 243.168 213.093 244.512 213.093 246.312C213.093 248.448 214.701 249.216 216.597 249.888C218.301 250.512 219.381 250.8 219.381 251.832C219.381 252.72 218.565 253.416 217.149 253.416C215.517 253.416 214.485 252.888 213.573 252L212.589 253.488C213.717 254.472 215.205 255.144 217.149 255.144ZM231.045 237.96V255H233.133V237.96H231.045ZM242.167 255.144C244.063 255.144 245.551 254.256 246.391 252.84H246.415V255H248.287V237.336H246.343V245.4H246.319C245.431 243.984 243.919 243.168 242.143 243.168C238.855 243.168 236.431 245.784 236.431 249.24C236.431 252.792 238.927 255.144 242.167 255.144ZM242.431 253.368C240.055 253.368 238.423 251.592 238.423 249.24C238.423 246.648 240.223 244.944 242.455 244.944C244.807 244.944 246.415 246.84 246.415 249.24C246.415 251.712 244.639 253.368 242.431 253.368ZM262.31 248.952C262.31 245.616 260.126 243.168 256.934 243.168C253.598 243.168 251.174 245.64 251.174 249.168C251.174 252.744 253.622 255.144 257.078 255.144C259.43 255.144 260.894 254.256 261.902 252.96L260.534 251.808C259.814 252.696 258.71 253.368 257.15 253.368C254.942 253.368 253.406 251.928 253.142 249.744H262.262C262.262 249.6 262.31 249.264 262.31 248.952ZM256.91 244.944C258.83 244.944 260.078 246.24 260.366 248.16H253.19C253.55 246.168 255.038 244.944 256.91 244.944ZM270.08 255.144C271.976 255.144 273.416 254.28 274.256 252.888H274.28V255H276.152V243.312H274.208V245.376L274.16 245.4C273.32 243.984 271.808 243.168 270.08 243.168C266.768 243.168 264.392 245.784 264.392 249.24C264.392 252.792 266.864 255.144 270.08 255.144ZM270.368 253.368C267.968 253.368 266.36 251.592 266.36 249.24C266.36 246.648 268.16 244.944 270.368 244.944C272.672 244.944 274.28 246.84 274.28 249.24C274.28 251.712 272.528 253.368 270.368 253.368ZM157.19 267.96V285H159.278V278.496H162.782C166.334 278.496 168.782 276.84 168.782 273.24C168.782 270.216 167.126 267.96 163.142 267.96H157.19ZM162.59 276.6H159.278V269.856H162.926C165.206 269.856 166.622 271.008 166.622 273.192C166.622 275.16 165.422 276.6 162.59 276.6ZM171.765 267.336V285H173.709V267.336H171.765ZM182.424 285.144C184.32 285.144 185.76 284.28 186.6 282.888H186.624V285H188.496V273.312H186.552V275.376L186.504 275.4C185.664 273.984 184.152 273.168 182.424 273.168C179.112 273.168 176.736 275.784 176.736 279.24C176.736 282.792 179.208 285.144 182.424 285.144ZM182.712 283.368C180.312 283.368 178.704 281.592 178.704 279.24C178.704 276.648 180.504 274.944 182.712 274.944C185.016 274.944 186.624 276.84 186.624 279.24C186.624 281.712 184.872 283.368 182.712 283.368ZM191.988 273.312V285H193.932V279.168C193.932 276.528 195.372 274.944 197.58 274.944C199.284 274.944 200.46 275.88 200.46 278.616V285H202.404V278.064C202.404 274.728 200.724 273.168 198.204 273.168C196.404 273.168 194.868 274.008 193.956 275.424H193.932V273.312H191.988ZM205.816 273.312V285H207.76V279.168C207.76 276.528 209.2 274.944 211.408 274.944C213.112 274.944 214.288 275.88 214.288 278.616V285H216.232V278.064C216.232 274.728 214.552 273.168 212.032 273.168C210.232 273.168 208.696 274.008 207.784 275.424H207.76V273.312H205.816ZM220.772 271.176C221.564 271.176 222.188 270.552 222.188 269.784C222.188 269.016 221.564 268.392 220.772 268.392C219.98 268.392 219.356 269.016 219.356 269.784C219.356 270.552 219.98 271.176 220.772 271.176ZM219.788 273.312V285H221.732V273.312H219.788ZM225.527 273.312V285H227.471V279.168C227.471 276.528 228.911 274.944 231.119 274.944C232.823 274.944 233.999 275.88 233.999 278.616V285H235.943V278.064C235.943 274.728 234.263 273.168 231.743 273.168C229.943 273.168 228.407 274.008 227.495 275.424H227.471V273.312H225.527ZM244.515 289.896C248.595 289.896 250.275 287.496 250.275 284.136V273.312H248.331V275.184H248.283C247.347 273.912 245.835 273.168 244.179 273.168C240.891 273.168 238.587 275.664 238.587 279C238.587 282.48 241.059 284.784 244.251 284.784C246.051 284.784 247.443 283.992 248.307 282.744H248.355V284.616C248.355 286.584 247.083 288.12 244.443 288.12C242.763 288.12 241.587 287.664 240.243 286.896L239.763 288.624C241.155 289.464 242.763 289.896 244.515 289.896ZM244.491 282.984C242.283 282.984 240.555 281.424 240.555 278.952C240.555 276.672 242.139 274.968 244.515 274.968C246.699 274.968 248.403 276.552 248.403 278.904C248.403 281.232 246.843 282.984 244.491 282.984Z"/>
</mask>
<path d="M131.292 237.96V255H137.508C141.372 255 143.196 253.08 143.196 250.368C143.196 247.896 141.636 246.456 139.644 246.048V246C141.492 245.352 142.356 243.768 142.356 242.112C142.356 239.208 140.172 237.96 136.86 237.96H131.292ZM136.884 245.304H133.38V239.856L136.644 239.832C139.14 239.832 140.22 240.888 140.22 242.52C140.22 244.584 138.636 245.304 136.884 245.304ZM137.316 253.104H133.38V247.128H137.004C139.644 247.128 141.012 248.28 141.012 250.2C141.012 252.168 139.548 253.104 137.316 253.104ZM150.366 255.144C151.902 255.144 153.342 254.376 154.23 252.984H154.254V255H156.198V243.312H154.254V248.976C154.254 251.76 152.646 253.368 150.774 253.368C148.926 253.368 147.918 252.36 147.918 249.72V243.312H145.974V250.272C145.974 253.608 147.678 255.144 150.366 255.144ZM163.243 255.144C166.051 255.144 167.443 253.632 167.443 251.808C167.467 249.528 165.835 249.096 163.363 248.136C162.091 247.68 161.155 247.224 161.155 246.312C161.155 245.424 162.043 244.896 162.955 244.896C163.963 244.896 165.043 245.208 166.051 246.144L167.059 244.608C165.763 243.552 164.443 243.168 163.027 243.168C160.819 243.168 159.187 244.512 159.187 246.312C159.187 248.448 160.795 249.216 162.691 249.888C164.395 250.512 165.475 250.8 165.475 251.832C165.475 252.72 164.659 253.416 163.243 253.416C161.611 253.416 160.579 252.888 159.667 252L158.683 253.488C159.811 254.472 161.299 255.144 163.243 255.144ZM171.319 241.176C172.111 241.176 172.735 240.552 172.735 239.784C172.735 239.016 172.111 238.392 171.319 238.392C170.527 238.392 169.903 239.016 169.903 239.784C169.903 240.552 170.527 241.176 171.319 241.176ZM170.335 243.312V255H172.279V243.312H170.335ZM176.074 243.312V255H178.018V249.168C178.018 246.528 179.458 244.944 181.666 244.944C183.37 244.944 184.546 245.88 184.546 248.616V255H186.49V248.064C186.49 244.728 184.81 243.168 182.29 243.168C180.49 243.168 178.954 244.008 178.042 245.424H178.018V243.312H176.074ZM200.294 248.952C200.294 245.616 198.11 243.168 194.918 243.168C191.582 243.168 189.158 245.64 189.158 249.168C189.158 252.744 191.606 255.144 195.062 255.144C197.414 255.144 198.878 254.256 199.886 252.96L198.518 251.808C197.798 252.696 196.694 253.368 195.134 253.368C192.926 253.368 191.39 251.928 191.126 249.744H200.246C200.246 249.6 200.294 249.264 200.294 248.952ZM194.894 244.944C196.814 244.944 198.062 246.24 198.35 248.16H191.174C191.534 246.168 193.022 244.944 194.894 244.944ZM206.672 255.144C209.48 255.144 210.872 253.632 210.872 251.808C210.896 249.528 209.264 249.096 206.792 248.136C205.52 247.68 204.584 247.224 204.584 246.312C204.584 245.424 205.472 244.896 206.384 244.896C207.392 244.896 208.472 245.208 209.48 246.144L210.488 244.608C209.192 243.552 207.872 243.168 206.456 243.168C204.248 243.168 202.616 244.512 202.616 246.312C202.616 248.448 204.224 249.216 206.12 249.888C207.824 250.512 208.904 250.8 208.904 251.832C208.904 252.72 208.088 253.416 206.672 253.416C205.04 253.416 204.008 252.888 203.096 252L202.112 253.488C203.24 254.472 204.728 255.144 206.672 255.144ZM217.149 255.144C219.957 255.144 221.349 253.632 221.349 251.808C221.373 249.528 219.741 249.096 217.269 248.136C215.997 247.68 215.061 247.224 215.061 246.312C215.061 245.424 215.949 244.896 216.861 244.896C217.869 244.896 218.949 245.208 219.957 246.144L220.965 244.608C219.669 243.552 218.349 243.168 216.933 243.168C214.725 243.168 213.093 244.512 213.093 246.312C213.093 248.448 214.701 249.216 216.597 249.888C218.301 250.512 219.381 250.8 219.381 251.832C219.381 252.72 218.565 253.416 217.149 253.416C215.517 253.416 214.485 252.888 213.573 252L212.589 253.488C213.717 254.472 215.205 255.144 217.149 255.144ZM231.045 237.96V255H233.133V237.96H231.045ZM242.167 255.144C244.063 255.144 245.551 254.256 246.391 252.84H246.415V255H248.287V237.336H246.343V245.4H246.319C245.431 243.984 243.919 243.168 242.143 243.168C238.855 243.168 236.431 245.784 236.431 249.24C236.431 252.792 238.927 255.144 242.167 255.144ZM242.431 253.368C240.055 253.368 238.423 251.592 238.423 249.24C238.423 246.648 240.223 244.944 242.455 244.944C244.807 244.944 246.415 246.84 246.415 249.24C246.415 251.712 244.639 253.368 242.431 253.368ZM262.31 248.952C262.31 245.616 260.126 243.168 256.934 243.168C253.598 243.168 251.174 245.64 251.174 249.168C251.174 252.744 253.622 255.144 257.078 255.144C259.43 255.144 260.894 254.256 261.902 252.96L260.534 251.808C259.814 252.696 258.71 253.368 257.15 253.368C254.942 253.368 253.406 251.928 253.142 249.744H262.262C262.262 249.6 262.31 249.264 262.31 248.952ZM256.91 244.944C258.83 244.944 260.078 246.24 260.366 248.16H253.19C253.55 246.168 255.038 244.944 256.91 244.944ZM270.08 255.144C271.976 255.144 273.416 254.28 274.256 252.888H274.28V255H276.152V243.312H274.208V245.376L274.16 245.4C273.32 243.984 271.808 243.168 270.08 243.168C266.768 243.168 264.392 245.784 264.392 249.24C264.392 252.792 266.864 255.144 270.08 255.144ZM270.368 253.368C267.968 253.368 266.36 251.592 266.36 249.24C266.36 246.648 268.16 244.944 270.368 244.944C272.672 244.944 274.28 246.84 274.28 249.24C274.28 251.712 272.528 253.368 270.368 253.368ZM157.19 267.96V285H159.278V278.496H162.782C166.334 278.496 168.782 276.84 168.782 273.24C168.782 270.216 167.126 267.96 163.142 267.96H157.19ZM162.59 276.6H159.278V269.856H162.926C165.206 269.856 166.622 271.008 166.622 273.192C166.622 275.16 165.422 276.6 162.59 276.6ZM171.765 267.336V285H173.709V267.336H171.765ZM182.424 285.144C184.32 285.144 185.76 284.28 186.6 282.888H186.624V285H188.496V273.312H186.552V275.376L186.504 275.4C185.664 273.984 184.152 273.168 182.424 273.168C179.112 273.168 176.736 275.784 176.736 279.24C176.736 282.792 179.208 285.144 182.424 285.144ZM182.712 283.368C180.312 283.368 178.704 281.592 178.704 279.24C178.704 276.648 180.504 274.944 182.712 274.944C185.016 274.944 186.624 276.84 186.624 279.24C186.624 281.712 184.872 283.368 182.712 283.368ZM191.988 273.312V285H193.932V279.168C193.932 276.528 195.372 274.944 197.58 274.944C199.284 274.944 200.46 275.88 200.46 278.616V285H202.404V278.064C202.404 274.728 200.724 273.168 198.204 273.168C196.404 273.168 194.868 274.008 193.956 275.424H193.932V273.312H191.988ZM205.816 273.312V285H207.76V279.168C207.76 276.528 209.2 274.944 211.408 274.944C213.112 274.944 214.288 275.88 214.288 278.616V285H216.232V278.064C216.232 274.728 214.552 273.168 212.032 273.168C210.232 273.168 208.696 274.008 207.784 275.424H207.76V273.312H205.816ZM220.772 271.176C221.564 271.176 222.188 270.552 222.188 269.784C222.188 269.016 221.564 268.392 220.772 268.392C219.98 268.392 219.356 269.016 219.356 269.784C219.356 270.552 219.98 271.176 220.772 271.176ZM219.788 273.312V285H221.732V273.312H219.788ZM225.527 273.312V285H227.471V279.168C227.471 276.528 228.911 274.944 231.119 274.944C232.823 274.944 233.999 275.88 233.999 278.616V285H235.943V278.064C235.943 274.728 234.263 273.168 231.743 273.168C229.943 273.168 228.407 274.008 227.495 275.424H227.471V273.312H225.527ZM244.515 289.896C248.595 289.896 250.275 287.496 250.275 284.136V273.312H248.331V275.184H248.283C247.347 273.912 245.835 273.168 244.179 273.168C240.891 273.168 238.587 275.664 238.587 279C238.587 282.48 241.059 284.784 244.251 284.784C246.051 284.784 247.443 283.992 248.307 282.744H248.355V284.616C248.355 286.584 247.083 288.12 244.443 288.12C242.763 288.12 241.587 287.664 240.243 286.896L239.763 288.624C241.155 289.464 242.763 289.896 244.515 289.896ZM244.491 282.984C242.283 282.984 240.555 281.424 240.555 278.952C240.555 276.672 242.139 274.968 244.515 274.968C246.699 274.968 248.403 276.552 248.403 278.904C248.403 281.232 246.843 282.984 244.491 282.984Z" fill="black"/>
<path d="M131.292 237.96V237.66H130.992V237.96H131.292ZM131.292 255H130.992V255.3H131.292V255ZM139.644 246.048H139.344V246.293L139.583 246.342L139.644 246.048ZM139.644 246L139.544 245.717L139.344 245.787V246H139.644ZM133.38 245.304H133.08V245.604H133.38V245.304ZM133.38 239.856L133.377 239.556L133.08 239.558V239.856H133.38ZM136.644 239.832V239.532L136.641 239.532L136.644 239.832ZM133.38 253.104H133.08V253.404H133.38V253.104ZM133.38 247.128V246.828H133.08V247.128H133.38ZM130.992 237.96V255H131.592V237.96H130.992ZM131.292 255.3H137.508V254.7H131.292V255.3ZM137.508 255.3C139.486 255.3 140.987 254.808 141.998 253.927C143.014 253.041 143.496 251.794 143.496 250.368H142.896C142.896 251.654 142.466 252.723 141.603 253.475C140.736 254.232 139.393 254.7 137.508 254.7V255.3ZM143.496 250.368C143.496 249.065 143.083 248.014 142.391 247.235C141.702 246.458 140.752 245.969 139.704 245.754L139.583 246.342C140.528 246.535 141.354 246.97 141.942 247.633C142.528 248.294 142.896 249.199 142.896 250.368H143.496ZM139.944 246.048V246H139.344V246.048H139.944ZM139.743 246.283C141.728 245.587 142.656 243.876 142.656 242.112H142.056C142.056 243.66 141.255 245.117 139.544 245.717L139.743 246.283ZM142.656 242.112C142.656 240.574 142.071 239.439 141.022 238.702C139.991 237.976 138.545 237.66 136.86 237.66V238.26C138.486 238.26 139.789 238.568 140.677 239.192C141.548 239.805 142.056 240.746 142.056 242.112H142.656ZM136.86 237.66H131.292V238.26H136.86V237.66ZM136.884 245.004H133.38V245.604H136.884V245.004ZM133.68 245.304V239.856H133.08V245.304H133.68ZM133.382 240.156L136.646 240.132L136.641 239.532L133.377 239.556L133.382 240.156ZM136.644 240.132C137.856 240.132 138.672 240.389 139.18 240.798C139.677 241.197 139.92 241.775 139.92 242.52H140.52C140.52 241.633 140.223 240.867 139.556 240.33C138.9 239.803 137.927 239.532 136.644 239.532V240.132ZM139.92 242.52C139.92 243.464 139.564 244.065 139.035 244.442C138.49 244.83 137.726 245.004 136.884 245.004V245.604C137.794 245.604 138.698 245.418 139.383 244.93C140.084 244.431 140.52 243.64 140.52 242.52H139.92ZM137.316 252.804H133.38V253.404H137.316V252.804ZM133.68 253.104V247.128H133.08V253.104H133.68ZM133.38 247.428H137.004V246.828H133.38V247.428ZM137.004 247.428C138.286 247.428 139.212 247.708 139.812 248.18C140.402 248.643 140.712 249.318 140.712 250.2H141.312C141.312 249.162 140.938 248.301 140.183 247.708C139.439 247.124 138.362 246.828 137.004 246.828V247.428ZM140.712 250.2C140.712 251.1 140.382 251.732 139.822 252.149C139.248 252.576 138.396 252.804 137.316 252.804V253.404C138.467 253.404 139.464 253.164 140.18 252.631C140.909 252.088 141.312 251.268 141.312 250.2H140.712ZM154.23 252.984V252.684H154.066L153.977 252.823L154.23 252.984ZM154.254 252.984H154.554V252.684H154.254V252.984ZM154.254 255H153.954V255.3H154.254V255ZM156.198 255V255.3H156.498V255H156.198ZM156.198 243.312H156.498V243.012H156.198V243.312ZM154.254 243.312V243.012H153.954V243.312H154.254ZM147.918 243.312H148.218V243.012H147.918V243.312ZM145.974 243.312V243.012H145.674V243.312H145.974ZM150.366 255.444C152.006 255.444 153.541 254.623 154.483 253.145L153.977 252.823C153.144 254.129 151.798 254.844 150.366 254.844V255.444ZM154.23 253.284H154.254V252.684H154.23V253.284ZM153.954 252.984V255H154.554V252.984H153.954ZM154.254 255.3H156.198V254.7H154.254V255.3ZM156.498 255V243.312H155.898V255H156.498ZM156.198 243.012H154.254V243.612H156.198V243.012ZM153.954 243.312V248.976H154.554V243.312H153.954ZM153.954 248.976C153.954 251.643 152.436 253.068 150.774 253.068V253.668C152.856 253.668 154.554 251.877 154.554 248.976H153.954ZM150.774 253.068C149.904 253.068 149.291 252.833 148.884 252.342C148.466 251.839 148.218 251.012 148.218 249.72H147.618C147.618 251.068 147.874 252.065 148.422 252.726C148.981 253.399 149.796 253.668 150.774 253.668V253.068ZM148.218 249.72V243.312H147.618V249.72H148.218ZM147.918 243.012H145.974V243.612H147.918V243.012ZM145.674 243.312V250.272H146.274V243.312H145.674ZM145.674 250.272C145.674 251.988 146.113 253.291 146.945 254.166C147.779 255.043 148.966 255.444 150.366 255.444V254.844C149.079 254.844 148.069 254.477 147.379 253.752C146.688 253.025 146.274 251.892 146.274 250.272H145.674ZM167.443 251.808L167.143 251.805V251.808H167.443ZM163.363 248.136L163.471 247.856L163.464 247.854L163.363 248.136ZM166.051 246.144L165.846 246.364L166.107 246.605L166.301 246.309L166.051 246.144ZM167.059 244.608L167.309 244.773L167.458 244.546L167.248 244.375L167.059 244.608ZM162.691 249.888L162.794 249.606L162.791 249.605L162.691 249.888ZM159.667 252L159.876 251.785L159.616 251.532L159.416 251.835L159.667 252ZM158.683 253.488L158.432 253.323L158.288 253.541L158.485 253.714L158.683 253.488ZM163.243 255.444C164.699 255.444 165.825 255.051 166.592 254.387C167.362 253.719 167.743 252.8 167.743 251.808H167.143C167.143 252.64 166.827 253.389 166.199 253.933C165.568 254.481 164.594 254.844 163.243 254.844V255.444ZM167.743 251.811C167.749 251.205 167.645 250.701 167.431 250.273C167.217 249.844 166.901 249.512 166.514 249.233C165.76 248.692 164.68 248.326 163.471 247.856L163.254 248.416C164.517 248.906 165.49 249.236 166.164 249.721C166.49 249.955 166.733 250.218 166.895 250.542C167.057 250.866 167.148 251.271 167.143 251.805L167.743 251.811ZM163.464 247.854C162.827 247.625 162.312 247.409 161.958 247.152C161.615 246.903 161.455 246.642 161.455 246.312H160.855C160.855 246.894 161.163 247.317 161.606 247.638C162.037 247.951 162.626 248.191 163.261 248.418L163.464 247.854ZM161.455 246.312C161.455 245.98 161.616 245.711 161.888 245.514C162.166 245.313 162.552 245.196 162.955 245.196V244.596C162.445 244.596 161.931 244.743 161.537 245.028C161.137 245.317 160.855 245.756 160.855 246.312H161.455ZM162.955 245.196C163.894 245.196 164.899 245.484 165.846 246.364L166.255 245.924C165.186 244.932 164.031 244.596 162.955 244.596V245.196ZM166.301 246.309L167.309 244.773L166.808 244.443L165.8 245.979L166.301 246.309ZM167.248 244.375C165.894 243.272 164.506 242.868 163.027 242.868V243.468C164.379 243.468 165.631 243.832 166.869 244.841L167.248 244.375ZM163.027 242.868C160.711 242.868 158.887 244.293 158.887 246.312H159.487C159.487 244.731 160.926 243.468 163.027 243.468V242.868ZM158.887 246.312C158.887 247.471 159.33 248.28 160.033 248.878C160.719 249.46 161.643 249.835 162.59 250.171L162.791 249.605C161.842 249.269 161.014 248.924 160.422 248.42C159.848 247.932 159.487 247.289 159.487 246.312H158.887ZM162.587 250.17C163.461 250.49 164.118 250.705 164.572 250.967C164.792 251.094 164.94 251.22 165.034 251.353C165.124 251.481 165.175 251.631 165.175 251.832H165.775C165.775 251.517 165.691 251.244 165.525 251.008C165.363 250.778 165.134 250.599 164.872 250.447C164.359 250.151 163.624 249.91 162.794 249.606L162.587 250.17ZM165.175 251.832C165.175 252.175 165.02 252.485 164.71 252.717C164.394 252.953 163.904 253.116 163.243 253.116V253.716C163.997 253.716 164.623 253.531 165.069 253.197C165.521 252.859 165.775 252.377 165.775 251.832H165.175ZM163.243 253.116C161.694 253.116 160.736 252.623 159.876 251.785L159.457 252.215C160.421 253.153 161.527 253.716 163.243 253.716V253.116ZM159.416 251.835L158.432 253.323L158.933 253.653L159.917 252.165L159.416 251.835ZM158.485 253.714C159.665 254.743 161.222 255.444 163.243 255.444V254.844C161.375 254.844 159.956 254.201 158.88 253.262L158.485 253.714ZM170.335 243.312V243.012H170.035V243.312H170.335ZM170.335 255H170.035V255.3H170.335V255ZM172.279 255V255.3H172.579V255H172.279ZM172.279 243.312H172.579V243.012H172.279V243.312ZM171.319 241.476C172.274 241.476 173.035 240.721 173.035 239.784H172.435C172.435 240.383 171.949 240.876 171.319 240.876V241.476ZM173.035 239.784C173.035 238.847 172.274 238.092 171.319 238.092V238.692C171.949 238.692 172.435 239.185 172.435 239.784H173.035ZM171.319 238.092C170.365 238.092 169.603 238.847 169.603 239.784H170.203C170.203 239.185 170.69 238.692 171.319 238.692V238.092ZM169.603 239.784C169.603 240.721 170.365 241.476 171.319 241.476V240.876C170.69 240.876 170.203 240.383 170.203 239.784H169.603ZM170.035 243.312V255H170.635V243.312H170.035ZM170.335 255.3H172.279V254.7H170.335V255.3ZM172.579 255V243.312H171.979V255H172.579ZM172.279 243.012H170.335V243.612H172.279V243.012ZM176.074 243.312V243.012H175.774V243.312H176.074ZM176.074 255H175.774V255.3H176.074V255ZM178.018 255V255.3H178.318V255H178.018ZM184.546 255H184.246V255.3H184.546V255ZM186.49 255V255.3H186.79V255H186.49ZM178.042 245.424V245.724H178.206L178.294 245.586L178.042 245.424ZM178.018 245.424H177.718V245.724H178.018V245.424ZM178.018 243.312H178.318V243.012H178.018V243.312ZM175.774 243.312V255H176.374V243.312H175.774ZM176.074 255.3H178.018V254.7H176.074V255.3ZM178.318 255V249.168H177.718V255H178.318ZM178.318 249.168C178.318 247.901 178.663 246.922 179.24 246.264C179.812 245.61 180.638 245.244 181.666 245.244V244.644C180.486 244.644 179.488 245.07 178.788 245.868C178.093 246.662 177.718 247.795 177.718 249.168H178.318ZM181.666 245.244C182.464 245.244 183.088 245.461 183.52 245.952C183.959 246.451 184.246 247.284 184.246 248.616H184.846C184.846 247.212 184.545 246.209 183.97 245.556C183.388 244.895 182.572 244.644 181.666 244.644V245.244ZM184.246 248.616V255H184.846V248.616H184.246ZM184.546 255.3H186.49V254.7H184.546V255.3ZM186.79 255V248.064H186.19V255H186.79ZM186.79 248.064C186.79 246.349 186.358 245.043 185.557 244.163C184.752 243.279 183.613 242.868 182.29 242.868V243.468C183.487 243.468 184.448 243.837 185.113 244.567C185.782 245.301 186.19 246.443 186.19 248.064H186.79ZM182.29 242.868C180.392 242.868 178.759 243.757 177.79 245.262L178.294 245.586C179.149 244.259 180.588 243.468 182.29 243.468V242.868ZM178.042 245.124H178.018V245.724H178.042V245.124ZM178.318 245.424V243.312H177.718V245.424H178.318ZM178.018 243.012H176.074V243.612H178.018V243.012ZM199.886 252.96L200.123 253.144L200.3 252.916L200.079 252.731L199.886 252.96ZM198.518 251.808L198.711 251.579L198.478 251.382L198.285 251.619L198.518 251.808ZM191.126 249.744V249.444H190.788L190.828 249.78L191.126 249.744ZM200.246 249.744V250.044H200.546V249.744H200.246ZM198.35 248.16V248.46H198.698L198.647 248.115L198.35 248.16ZM191.174 248.16L190.879 248.107L190.815 248.46H191.174V248.16ZM200.594 248.952C200.594 247.219 200.026 245.697 199.024 244.606C198.02 243.513 196.595 242.868 194.918 242.868V243.468C196.433 243.468 197.696 244.047 198.582 245.012C199.47 245.979 199.994 247.349 199.994 248.952H200.594ZM194.918 242.868C191.407 242.868 188.858 245.484 188.858 249.168H189.458C189.458 245.796 191.758 243.468 194.918 243.468V242.868ZM188.858 249.168C188.858 251.026 189.495 252.599 190.602 253.709C191.708 254.818 193.263 255.444 195.062 255.444V254.844C193.405 254.844 192.008 254.27 191.027 253.285C190.045 252.301 189.458 250.886 189.458 249.168H188.858ZM195.062 255.444C197.507 255.444 199.058 254.513 200.123 253.144L199.649 252.776C198.698 253.999 197.322 254.844 195.062 254.844V255.444ZM200.079 252.731L198.711 251.579L198.325 252.037L199.693 253.189L200.079 252.731ZM198.285 251.619C197.617 252.443 196.596 253.068 195.134 253.068V253.668C196.792 253.668 197.979 252.949 198.751 251.997L198.285 251.619ZM195.134 253.068C194.098 253.068 193.236 252.731 192.603 252.153C191.97 251.575 191.548 250.738 191.424 249.708L190.828 249.78C190.968 250.934 191.446 251.909 192.199 252.597C192.952 253.285 193.963 253.668 195.134 253.668V253.068ZM191.126 250.044H200.246V249.444H191.126V250.044ZM200.546 249.744C200.546 249.689 200.556 249.59 200.569 249.436C200.581 249.294 200.594 249.122 200.594 248.952H199.994C199.994 249.094 199.983 249.246 199.971 249.386C199.96 249.514 199.946 249.655 199.946 249.744H200.546ZM194.894 245.244C195.782 245.244 196.498 245.542 197.026 246.049C197.558 246.558 197.917 247.297 198.053 248.205L198.647 248.115C198.495 247.103 198.087 246.234 197.442 245.615C196.794 244.994 195.926 244.644 194.894 244.644V245.244ZM198.35 247.86H191.174V248.46H198.35V247.86ZM191.469 248.213C191.804 246.359 193.172 245.244 194.894 245.244V244.644C192.872 244.644 191.264 245.977 190.879 248.107L191.469 248.213ZM210.872 251.808L210.572 251.805V251.808H210.872ZM206.792 248.136L206.901 247.856L206.894 247.854L206.792 248.136ZM209.48 246.144L209.276 246.364L209.536 246.605L209.731 246.309L209.48 246.144ZM210.488 244.608L210.739 244.773L210.888 244.546L210.678 244.375L210.488 244.608ZM206.12 249.888L206.223 249.606L206.221 249.605L206.12 249.888ZM203.096 252L203.306 251.785L203.046 251.532L202.846 251.835L203.096 252ZM202.112 253.488L201.862 253.323L201.717 253.541L201.915 253.714L202.112 253.488ZM206.672 255.444C208.129 255.444 209.255 255.051 210.022 254.387C210.792 253.719 211.172 252.8 211.172 251.808H210.572C210.572 252.64 210.257 253.389 209.629 253.933C208.998 254.481 208.024 254.844 206.672 254.844V255.444ZM211.172 251.811C211.179 251.205 211.075 250.701 210.861 250.273C210.646 249.844 210.331 249.512 209.943 249.233C209.189 248.692 208.11 248.326 206.901 247.856L206.684 248.416C207.947 248.906 208.919 249.236 209.593 249.721C209.92 249.955 210.162 250.218 210.324 250.542C210.487 250.866 210.578 251.271 210.572 251.805L211.172 251.811ZM206.894 247.854C206.257 247.625 205.742 247.409 205.387 247.152C205.044 246.903 204.884 246.642 204.884 246.312H204.284C204.284 246.894 204.592 247.317 205.035 247.638C205.467 247.951 206.056 248.191 206.691 248.418L206.894 247.854ZM204.884 246.312C204.884 245.98 205.046 245.711 205.318 245.514C205.596 245.313 205.982 245.196 206.384 245.196V244.596C205.875 244.596 205.361 244.743 204.967 245.028C204.567 245.317 204.284 245.756 204.284 246.312H204.884ZM206.384 245.196C207.324 245.196 208.329 245.484 209.276 246.364L209.684 245.924C208.616 244.932 207.461 244.596 206.384 244.596V245.196ZM209.731 246.309L210.739 244.773L210.237 244.443L209.229 245.979L209.731 246.309ZM210.678 244.375C209.324 243.272 207.936 242.868 206.456 242.868V243.468C207.809 243.468 209.061 243.832 210.299 244.841L210.678 244.375ZM206.456 242.868C204.141 242.868 202.316 244.293 202.316 246.312H202.916C202.916 244.731 204.356 243.468 206.456 243.468V242.868ZM202.316 246.312C202.316 247.471 202.759 248.28 203.463 248.878C204.148 249.46 205.073 249.835 206.02 250.171L206.221 249.605C205.272 249.269 204.444 248.924 203.852 248.42C203.277 247.932 202.916 247.289 202.916 246.312H202.316ZM206.017 250.17C206.891 250.49 207.548 250.705 208.001 250.967C208.222 251.094 208.37 251.22 208.464 251.353C208.553 251.481 208.604 251.631 208.604 251.832H209.204C209.204 251.517 209.12 251.244 208.954 251.008C208.792 250.778 208.564 250.599 208.301 250.447C207.789 250.151 207.054 249.91 206.223 249.606L206.017 250.17ZM208.604 251.832C208.604 252.175 208.45 252.485 208.14 252.717C207.824 252.953 207.334 253.116 206.672 253.116V253.716C207.426 253.716 208.053 253.531 208.499 253.197C208.951 252.859 209.204 252.377 209.204 251.832H208.604ZM206.672 253.116C205.124 253.116 204.166 252.623 203.306 251.785L202.887 252.215C203.851 253.153 204.957 253.716 206.672 253.716V253.116ZM202.846 251.835L201.862 253.323L202.363 253.653L203.347 252.165L202.846 251.835ZM201.915 253.714C203.095 254.743 204.652 255.444 206.672 255.444V254.844C204.805 254.844 203.386 254.201 202.31 253.262L201.915 253.714ZM221.349 251.808L221.049 251.805V251.808H221.349ZM217.269 248.136L217.378 247.856L217.37 247.854L217.269 248.136ZM219.957 246.144L219.753 246.364L220.013 246.605L220.208 246.309L219.957 246.144ZM220.965 244.608L221.216 244.773L221.364 244.546L221.154 244.375L220.965 244.608ZM216.597 249.888L216.7 249.606L216.697 249.605L216.597 249.888ZM213.573 252L213.782 251.785L213.523 251.532L213.323 251.835L213.573 252ZM212.589 253.488L212.339 253.323L212.194 253.541L212.392 253.714L212.589 253.488ZM217.149 255.444C218.605 255.444 219.732 255.051 220.498 254.387C221.268 253.719 221.649 252.8 221.649 251.808H221.049C221.049 252.64 220.734 253.389 220.105 253.933C219.474 254.481 218.5 254.844 217.149 254.844V255.444ZM221.649 251.811C221.655 251.205 221.552 250.701 221.337 250.273C221.123 249.844 220.807 249.512 220.42 249.233C219.666 248.692 218.587 248.326 217.377 247.856L217.16 248.416C218.423 248.906 219.396 249.236 220.07 249.721C220.396 249.955 220.639 250.218 220.801 250.542C220.963 250.866 221.055 251.271 221.049 251.805L221.649 251.811ZM217.37 247.854C216.734 247.625 216.219 247.409 215.864 247.152C215.521 246.903 215.361 246.642 215.361 246.312H214.761C214.761 246.894 215.069 247.317 215.512 247.638C215.943 247.951 216.532 248.191 217.168 248.418L217.37 247.854ZM215.361 246.312C215.361 245.98 215.523 245.711 215.795 245.514C216.072 245.313 216.458 245.196 216.861 245.196V244.596C216.351 244.596 215.837 244.743 215.443 245.028C215.043 245.317 214.761 245.756 214.761 246.312H215.361ZM216.861 245.196C217.8 245.196 218.805 245.484 219.753 246.364L220.161 245.924C219.092 244.932 217.937 244.596 216.861 244.596V245.196ZM220.208 246.309L221.216 244.773L220.714 244.443L219.706 245.979L220.208 246.309ZM221.154 244.375C219.801 243.272 218.412 242.868 216.933 242.868V243.468C218.286 243.468 219.537 243.832 220.775 244.841L221.154 244.375ZM216.933 242.868C214.618 242.868 212.793 244.293 212.793 246.312H213.393C213.393 244.731 214.832 243.468 216.933 243.468V242.868ZM212.793 246.312C212.793 247.471 213.236 248.28 213.94 248.878C214.625 249.46 215.549 249.835 216.497 250.171L216.697 249.605C215.748 249.269 214.921 248.924 214.328 248.42C213.754 247.932 213.393 247.289 213.393 246.312H212.793ZM216.494 250.17C217.367 250.49 218.024 250.705 218.478 250.967C218.698 251.094 218.846 251.22 218.94 251.353C219.03 251.481 219.081 251.631 219.081 251.832H219.681C219.681 251.517 219.597 251.244 219.431 251.008C219.269 250.778 219.041 250.599 218.778 250.447C218.265 250.151 217.531 249.91 216.7 249.606L216.494 250.17ZM219.081 251.832C219.081 252.175 218.927 252.485 218.616 252.717C218.3 252.953 217.811 253.116 217.149 253.116V253.716C217.903 253.716 218.53 253.531 218.976 253.197C219.427 252.859 219.681 252.377 219.681 251.832H219.081ZM217.149 253.116C215.601 253.116 214.642 252.623 213.782 251.785L213.364 252.215C214.327 253.153 215.433 253.716 217.149 253.716V253.116ZM213.323 251.835L212.339 253.323L212.839 253.653L213.823 252.165L213.323 251.835ZM212.392 253.714C213.571 254.743 215.129 255.444 217.149 255.444V254.844C215.281 254.844 213.862 254.201 212.786 253.262L212.392 253.714ZM231.045 237.96V237.66H230.744V237.96H231.045ZM231.045 255H230.744V255.3H231.045V255ZM233.132 255V255.3H233.433V255H233.132ZM233.132 237.96H233.433V237.66H233.132V237.96ZM230.744 237.96V255H231.344V237.96H230.744ZM231.045 255.3H233.132V254.7H231.045V255.3ZM233.433 255V237.96H232.832V255H233.433ZM233.132 237.66H231.045V238.26H233.132V237.66ZM246.391 252.84V252.54H246.22L246.133 252.687L246.391 252.84ZM246.415 252.84H246.715V252.54H246.415V252.84ZM246.415 255H246.115V255.3H246.415V255ZM248.287 255V255.3H248.587V255H248.287ZM248.287 237.336H248.587V237.036H248.287V237.336ZM246.343 237.336V237.036H246.043V237.336H246.343ZM246.343 245.4V245.7H246.643V245.4H246.343ZM246.319 245.4L246.065 245.559L246.153 245.7H246.319V245.4ZM242.167 255.444C244.165 255.444 245.753 254.503 246.649 252.993L246.133 252.687C245.349 254.009 243.961 254.844 242.167 254.844V255.444ZM246.391 253.14H246.415V252.54H246.391V253.14ZM246.115 252.84V255H246.715V252.84H246.115ZM246.415 255.3H248.287V254.7H246.415V255.3ZM248.587 255V237.336H247.987V255H248.587ZM248.287 237.036H246.343V237.636H248.287V237.036ZM246.043 237.336V245.4H246.643V237.336H246.043ZM246.343 245.1H246.319V245.7H246.343V245.1ZM246.573 245.241C245.627 243.732 244.016 242.868 242.143 242.868V243.468C243.822 243.468 245.235 244.236 246.065 245.559L246.573 245.241ZM242.143 242.868C238.671 242.868 236.131 245.637 236.131 249.24H236.731C236.731 245.931 239.039 243.468 242.143 243.468V242.868ZM236.131 249.24C236.131 252.957 238.76 255.444 242.167 255.444V254.844C239.094 254.844 236.731 252.627 236.731 249.24H236.131ZM242.431 253.068C240.233 253.068 238.723 251.439 238.723 249.24H238.123C238.123 251.745 239.877 253.668 242.431 253.668V253.068ZM238.723 249.24C238.723 246.806 240.397 245.244 242.455 245.244V244.644C240.049 244.644 238.123 246.49 238.123 249.24H238.723ZM242.455 245.244C244.612 245.244 246.115 246.975 246.115 249.24H246.715C246.715 246.705 245.002 244.644 242.455 244.644V245.244ZM246.115 249.24C246.115 251.547 244.472 253.068 242.431 253.068V253.668C244.806 253.668 246.715 251.877 246.715 249.24H246.115ZM261.902 252.96L262.139 253.144L262.316 252.916L262.095 252.731L261.902 252.96ZM260.534 251.808L260.727 251.579L260.493 251.382L260.301 251.619L260.534 251.808ZM253.142 249.744V249.444H252.803L252.844 249.78L253.142 249.744ZM262.262 249.744V250.044H262.562V249.744H262.262ZM260.366 248.16V248.46H260.714L260.662 248.115L260.366 248.16ZM253.19 248.16L252.895 248.107L252.831 248.46H253.19V248.16ZM262.61 248.952C262.61 247.219 262.042 245.697 261.04 244.606C260.036 243.513 258.611 242.868 256.934 242.868V243.468C258.449 243.468 259.712 244.047 260.598 245.012C261.486 245.979 262.01 247.349 262.01 248.952H262.61ZM256.934 242.868C253.422 242.868 250.874 245.484 250.874 249.168H251.474C251.474 245.796 253.773 243.468 256.934 243.468V242.868ZM250.874 249.168C250.874 251.026 251.511 252.599 252.617 253.709C253.723 254.818 255.279 255.444 257.078 255.444V254.844C255.421 254.844 254.024 254.27 253.042 253.285C252.06 252.301 251.474 250.886 251.474 249.168H250.874ZM257.078 255.444C259.522 255.444 261.074 254.513 262.139 253.144L261.665 252.776C260.714 253.999 259.337 254.844 257.078 254.844V255.444ZM262.095 252.731L260.727 251.579L260.341 252.037L261.709 253.189L262.095 252.731ZM260.301 251.619C259.633 252.443 258.612 253.068 257.15 253.068V253.668C258.807 253.668 259.995 252.949 260.767 251.997L260.301 251.619ZM257.15 253.068C256.113 253.068 255.252 252.731 254.619 252.153C253.986 251.575 253.564 250.738 253.44 249.708L252.844 249.78C252.983 250.934 253.462 251.909 254.214 252.597C254.968 253.285 255.978 253.668 257.15 253.668V253.068ZM253.142 250.044H262.262V249.444H253.142V250.044ZM262.562 249.744C262.562 249.689 262.572 249.59 262.585 249.436C262.597 249.294 262.61 249.122 262.61 248.952H262.01C262.01 249.094 261.999 249.246 261.987 249.386C261.976 249.514 261.962 249.655 261.962 249.744H262.562ZM256.91 245.244C257.798 245.244 258.514 245.542 259.042 246.049C259.573 246.558 259.933 247.297 260.069 248.205L260.662 248.115C260.511 247.103 260.102 246.234 259.457 245.615C258.81 244.994 257.941 244.644 256.91 244.644V245.244ZM260.366 247.86H253.19V248.46H260.366V247.86ZM253.485 248.213C253.82 246.359 255.188 245.244 256.91 245.244V244.644C254.887 244.644 253.279 245.977 252.895 248.107L253.485 248.213ZM274.256 252.888V252.588H274.087L273.999 252.733L274.256 252.888ZM274.28 252.888H274.58V252.588H274.28V252.888ZM274.28 255H273.98V255.3H274.28V255ZM276.152 255V255.3H276.452V255H276.152ZM276.152 243.312H276.452V243.012H276.152V243.312ZM274.208 243.312V243.012H273.908V243.312H274.208ZM274.208 245.376L274.342 245.644L274.508 245.561V245.376H274.208ZM274.16 245.4L273.902 245.553L274.044 245.793L274.294 245.668L274.16 245.4ZM270.08 255.444C272.078 255.444 273.617 254.528 274.513 253.043L273.999 252.733C273.215 254.032 271.874 254.844 270.08 254.844V255.444ZM274.256 253.188H274.28V252.588H274.256V253.188ZM273.98 252.888V255H274.58V252.888H273.98ZM274.28 255.3H276.152V254.7H274.28V255.3ZM276.452 255V243.312H275.852V255H276.452ZM276.152 243.012H274.208V243.612H276.152V243.012ZM273.908 243.312V245.376H274.508V243.312H273.908ZM274.074 245.108L274.026 245.132L274.294 245.668L274.342 245.644L274.074 245.108ZM274.418 245.247C273.52 243.733 271.905 242.868 270.08 242.868V243.468C271.711 243.468 273.12 244.235 273.902 245.553L274.418 245.247ZM270.08 242.868C266.582 242.868 264.092 245.64 264.092 249.24H264.692C264.692 245.928 266.954 243.468 270.08 243.468V242.868ZM264.092 249.24C264.092 252.954 266.695 255.444 270.08 255.444V254.844C267.033 254.844 264.692 252.63 264.692 249.24H264.092ZM270.368 253.068C268.148 253.068 266.66 251.441 266.66 249.24H266.06C266.06 251.743 267.788 253.668 270.368 253.668V253.068ZM266.66 249.24C266.66 246.804 268.335 245.244 270.368 245.244V244.644C267.985 244.644 266.06 246.492 266.06 249.24H266.66ZM270.368 245.244C272.475 245.244 273.98 246.972 273.98 249.24H274.58C274.58 246.708 272.869 244.644 270.368 244.644V245.244ZM273.98 249.24C273.98 251.552 272.356 253.068 270.368 253.068V253.668C272.7 253.668 274.58 251.872 274.58 249.24H273.98ZM157.19 267.96V267.66H156.89V267.96H157.19ZM157.19 285H156.89V285.3H157.19V285ZM159.278 285V285.3H159.578V285H159.278ZM159.278 278.496V278.196H158.978V278.496H159.278ZM159.278 276.6H158.978V276.9H159.278V276.6ZM159.278 269.856V269.556H158.978V269.856H159.278ZM156.89 267.96V285H157.49V267.96H156.89ZM157.19 285.3H159.278V284.7H157.19V285.3ZM159.578 285V278.496H158.978V285H159.578ZM159.278 278.796H162.782V278.196H159.278V278.796ZM162.782 278.796C164.6 278.796 166.176 278.373 167.304 277.45C168.442 276.52 169.082 275.114 169.082 273.24H168.482C168.482 274.966 167.899 276.188 166.924 276.986C165.94 277.791 164.517 278.196 162.782 278.196V278.796ZM169.082 273.24C169.082 271.676 168.653 270.271 167.672 269.257C166.688 268.241 165.191 267.66 163.142 267.66V268.26C165.078 268.26 166.4 268.807 167.241 269.675C168.083 270.545 168.482 271.78 168.482 273.24H169.082ZM163.142 267.66H157.19V268.26H163.142V267.66ZM162.59 276.3H159.278V276.9H162.59V276.3ZM159.578 276.6V269.856H158.978V276.6H159.578ZM159.278 270.156H162.926V269.556H159.278V270.156ZM162.926 270.156C164.019 270.156 164.864 270.432 165.431 270.93C165.993 271.423 166.322 272.168 166.322 273.192H166.922C166.922 272.032 166.543 271.109 165.827 270.48C165.117 269.856 164.113 269.556 162.926 269.556V270.156ZM166.322 273.192C166.322 274.115 166.042 274.878 165.464 275.414C164.883 275.952 163.958 276.3 162.59 276.3V276.9C164.054 276.9 165.145 276.528 165.872 275.854C166.602 275.178 166.922 274.237 166.922 273.192H166.322ZM171.765 267.336V267.036H171.465V267.336H171.765ZM171.765 285H171.465V285.3H171.765V285ZM173.709 285V285.3H174.009V285H173.709ZM173.709 267.336H174.009V267.036H173.709V267.336ZM171.465 267.336V285H172.065V267.336H171.465ZM171.765 285.3H173.709V284.7H171.765V285.3ZM174.009 285V267.336H173.409V285H174.009ZM173.709 267.036H171.765V267.636H173.709V267.036ZM186.6 282.888V282.588H186.43L186.343 282.733L186.6 282.888ZM186.624 282.888H186.924V282.588H186.624V282.888ZM186.624 285H186.324V285.3H186.624V285ZM188.496 285V285.3H188.796V285H188.496ZM188.496 273.312H188.796V273.012H188.496V273.312ZM186.552 273.312V273.012H186.252V273.312H186.552ZM186.552 275.376L186.686 275.644L186.852 275.561V275.376H186.552ZM186.504 275.4L186.246 275.553L186.388 275.793L186.638 275.668L186.504 275.4ZM182.424 285.444C184.422 285.444 185.961 284.528 186.857 283.043L186.343 282.733C185.559 284.032 184.218 284.844 182.424 284.844V285.444ZM186.6 283.188H186.624V282.588H186.6V283.188ZM186.324 282.888V285H186.924V282.888H186.324ZM186.624 285.3H188.496V284.7H186.624V285.3ZM188.796 285V273.312H188.196V285H188.796ZM188.496 273.012H186.552V273.612H188.496V273.012ZM186.252 273.312V275.376H186.852V273.312H186.252ZM186.418 275.108L186.37 275.132L186.638 275.668L186.686 275.644L186.418 275.108ZM186.762 275.247C185.863 273.733 184.249 272.868 182.424 272.868V273.468C184.054 273.468 185.464 274.235 186.246 275.553L186.762 275.247ZM182.424 272.868C178.925 272.868 176.436 275.64 176.436 279.24H177.036C177.036 275.928 179.298 273.468 182.424 273.468V272.868ZM176.436 279.24C176.436 282.954 179.039 285.444 182.424 285.444V284.844C179.377 284.844 177.036 282.63 177.036 279.24H176.436ZM182.712 283.068C180.491 283.068 179.004 281.441 179.004 279.24H178.404C178.404 281.743 180.132 283.668 182.712 283.668V283.068ZM179.004 279.24C179.004 276.804 180.678 275.244 182.712 275.244V274.644C180.329 274.644 178.404 276.492 178.404 279.24H179.004ZM182.712 275.244C184.819 275.244 186.324 276.972 186.324 279.24H186.924C186.924 276.708 185.213 274.644 182.712 274.644V275.244ZM186.324 279.24C186.324 281.552 184.7 283.068 182.712 283.068V283.668C185.043 283.668 186.924 281.872 186.924 279.24H186.324ZM191.988 273.312V273.012H191.688V273.312H191.988ZM191.988 285H191.688V285.3H191.988V285ZM193.932 285V285.3H194.232V285H193.932ZM200.46 285H200.16V285.3H200.46V285ZM202.404 285V285.3H202.704V285H202.404ZM193.956 275.424V275.724H194.12L194.208 275.586L193.956 275.424ZM193.932 275.424H193.632V275.724H193.932V275.424ZM193.932 273.312H194.232V273.012H193.932V273.312ZM191.688 273.312V285H192.288V273.312H191.688ZM191.988 285.3H193.932V284.7H191.988V285.3ZM194.232 285V279.168H193.632V285H194.232ZM194.232 279.168C194.232 277.901 194.577 276.922 195.154 276.264C195.726 275.61 196.552 275.244 197.58 275.244V274.644C196.4 274.644 195.402 275.07 194.702 275.868C194.007 276.662 193.632 277.795 193.632 279.168H194.232ZM197.58 275.244C198.378 275.244 199.002 275.461 199.434 275.952C199.873 276.451 200.16 277.284 200.16 278.616H200.76C200.76 277.212 200.459 276.209 199.884 275.556C199.302 274.895 198.486 274.644 197.58 274.644V275.244ZM200.16 278.616V285H200.76V278.616H200.16ZM200.46 285.3H202.404V284.7H200.46V285.3ZM202.704 285V278.064H202.104V285H202.704ZM202.704 278.064C202.704 276.349 202.272 275.043 201.471 274.163C200.666 273.279 199.527 272.868 198.204 272.868V273.468C199.401 273.468 200.362 273.837 201.027 274.567C201.696 275.301 202.104 276.443 202.104 278.064H202.704ZM198.204 272.868C196.306 272.868 194.673 273.757 193.704 275.262L194.208 275.586C195.063 274.259 196.502 273.468 198.204 273.468V272.868ZM193.956 275.124H193.932V275.724H193.956V275.124ZM194.232 275.424V273.312H193.632V275.424H194.232ZM193.932 273.012H191.988V273.612H193.932V273.012ZM205.816 273.312V273.012H205.516V273.312H205.816ZM205.816 285H205.516V285.3H205.816V285ZM207.76 285V285.3H208.06V285H207.76ZM214.288 285H213.988V285.3H214.288V285ZM216.232 285V285.3H216.532V285H216.232ZM207.784 275.424V275.724H207.948L208.036 275.586L207.784 275.424ZM207.76 275.424H207.46V275.724H207.76V275.424ZM207.76 273.312H208.06V273.012H207.76V273.312ZM205.516 273.312V285H206.116V273.312H205.516ZM205.816 285.3H207.76V284.7H205.816V285.3ZM208.06 285V279.168H207.46V285H208.06ZM208.06 279.168C208.06 277.901 208.406 276.922 208.982 276.264C209.554 275.61 210.38 275.244 211.408 275.244V274.644C210.228 274.644 209.23 275.07 208.531 275.868C207.835 276.662 207.46 277.795 207.46 279.168H208.06ZM211.408 275.244C212.206 275.244 212.83 275.461 213.262 275.952C213.701 276.451 213.988 277.284 213.988 278.616H214.588C214.588 277.212 214.288 276.209 213.712 275.556C213.13 274.895 212.315 274.644 211.408 274.644V275.244ZM213.988 278.616V285H214.588V278.616H213.988ZM214.288 285.3H216.232V284.7H214.288V285.3ZM216.532 285V278.064H215.932V285H216.532ZM216.532 278.064C216.532 276.349 216.1 275.043 215.299 274.163C214.494 273.279 213.355 272.868 212.032 272.868V273.468C213.229 273.468 214.19 273.837 214.855 274.567C215.524 275.301 215.932 276.443 215.932 278.064H216.532ZM212.032 272.868C210.134 272.868 208.501 273.757 207.532 275.262L208.036 275.586C208.891 274.259 210.331 273.468 212.032 273.468V272.868ZM207.784 275.124H207.76V275.724H207.784V275.124ZM208.06 275.424V273.312H207.46V275.424H208.06ZM207.76 273.012H205.816V273.612H207.76V273.012ZM219.788 273.312V273.012H219.488V273.312H219.788ZM219.788 285H219.488V285.3H219.788V285ZM221.732 285V285.3H222.032V285H221.732ZM221.732 273.312H222.032V273.012H221.732V273.312ZM220.772 271.476C221.727 271.476 222.488 270.721 222.488 269.784H221.888C221.888 270.383 221.402 270.876 220.772 270.876V271.476ZM222.488 269.784C222.488 268.847 221.727 268.092 220.772 268.092V268.692C221.402 268.692 221.888 269.185 221.888 269.784H222.488ZM220.772 268.092C219.818 268.092 219.056 268.847 219.056 269.784H219.656C219.656 269.185 220.143 268.692 220.772 268.692V268.092ZM219.056 269.784C219.056 270.721 219.818 271.476 220.772 271.476V270.876C220.143 270.876 219.656 270.383 219.656 269.784H219.056ZM219.488 273.312V285H220.088V273.312H219.488ZM219.788 285.3H221.732V284.7H219.788V285.3ZM222.032 285V273.312H221.432V285H222.032ZM221.732 273.012H219.788V273.612H221.732V273.012ZM225.527 273.312V273.012H225.227V273.312H225.527ZM225.527 285H225.227V285.3H225.527V285ZM227.471 285V285.3H227.771V285H227.471ZM233.999 285H233.699V285.3H233.999V285ZM235.943 285V285.3H236.243V285H235.943ZM227.495 275.424V275.724H227.659L227.747 275.586L227.495 275.424ZM227.471 275.424H227.171V275.724H227.471V275.424ZM227.471 273.312H227.771V273.012H227.471V273.312ZM225.227 273.312V285H225.827V273.312H225.227ZM225.527 285.3H227.471V284.7H225.527V285.3ZM227.771 285V279.168H227.171V285H227.771ZM227.771 279.168C227.771 277.901 228.116 276.922 228.693 276.264C229.265 275.61 230.091 275.244 231.119 275.244V274.644C229.939 274.644 228.941 275.07 228.241 275.868C227.546 276.662 227.171 277.795 227.171 279.168H227.771ZM231.119 275.244C231.917 275.244 232.541 275.461 232.973 275.952C233.412 276.451 233.699 277.284 233.699 278.616H234.299C234.299 277.212 233.998 276.209 233.423 275.556C232.841 274.895 232.026 274.644 231.119 274.644V275.244ZM233.699 278.616V285H234.299V278.616H233.699ZM233.999 285.3H235.943V284.7H233.999V285.3ZM236.243 285V278.064H235.643V285H236.243ZM236.243 278.064C236.243 276.349 235.811 275.043 235.01 274.163C234.205 273.279 233.066 272.868 231.743 272.868V273.468C232.94 273.468 233.901 273.837 234.566 274.567C235.235 275.301 235.643 276.443 235.643 278.064H236.243ZM231.743 272.868C229.845 272.868 228.212 273.757 227.243 275.262L227.747 275.586C228.602 274.259 230.042 273.468 231.743 273.468V272.868ZM227.495 275.124H227.471V275.724H227.495V275.124ZM227.771 275.424V273.312H227.171V275.424H227.771ZM227.471 273.012H225.527V273.612H227.471V273.012ZM250.275 273.312H250.575V273.012H250.275V273.312ZM248.331 273.312V273.012H248.031V273.312H248.331ZM248.331 275.184V275.484H248.631V275.184H248.331ZM248.283 275.184L248.042 275.362L248.132 275.484H248.283V275.184ZM248.307 282.744V282.444H248.15L248.061 282.573L248.307 282.744ZM248.355 282.744H248.655V282.444H248.355V282.744ZM240.243 286.896L240.392 286.636L240.057 286.444L239.954 286.816L240.243 286.896ZM239.763 288.624L239.474 288.544L239.413 288.763L239.608 288.881L239.763 288.624ZM244.515 290.196C246.615 290.196 248.145 289.577 249.147 288.478C250.144 287.385 250.575 285.862 250.575 284.136H249.975C249.975 285.77 249.567 287.127 248.704 288.074C247.845 289.015 246.495 289.596 244.515 289.596V290.196ZM250.575 284.136V273.312H249.975V284.136H250.575ZM250.275 273.012H248.331V273.612H250.275V273.012ZM248.031 273.312V275.184H248.631V273.312H248.031ZM248.331 274.884H248.283V275.484H248.331V274.884ZM248.525 275.006C247.529 273.653 245.925 272.868 244.179 272.868V273.468C245.745 273.468 247.165 274.171 248.042 275.362L248.525 275.006ZM244.179 272.868C240.711 272.868 238.287 275.514 238.287 279H238.887C238.887 275.814 241.072 273.468 244.179 273.468V272.868ZM238.287 279C238.287 282.647 240.895 285.084 244.251 285.084V284.484C241.223 284.484 238.887 282.313 238.887 279H238.287ZM244.251 285.084C246.148 285.084 247.633 284.245 248.554 282.915L248.061 282.573C247.253 283.739 245.954 284.484 244.251 284.484V285.084ZM248.307 283.044H248.355V282.444H248.307V283.044ZM248.055 282.744V284.616H248.655V282.744H248.055ZM248.055 284.616C248.055 285.535 247.759 286.328 247.18 286.891C246.601 287.454 245.705 287.82 244.443 287.82V288.42C245.822 288.42 246.882 288.018 247.598 287.321C248.315 286.624 248.655 285.665 248.655 284.616H248.055ZM244.443 287.82C242.832 287.82 241.708 287.387 240.392 286.636L240.094 287.156C241.467 287.941 242.695 288.42 244.443 288.42V287.82ZM239.954 286.816L239.474 288.544L240.052 288.704L240.532 286.976L239.954 286.816ZM239.608 288.881C241.05 289.751 242.713 290.196 244.515 290.196V289.596C242.814 289.596 241.26 289.177 239.918 288.367L239.608 288.881ZM244.491 282.684C243.459 282.684 242.553 282.32 241.906 281.682C241.26 281.044 240.855 280.115 240.855 278.952H240.255C240.255 280.261 240.714 281.348 241.484 282.108C242.254 282.868 243.316 283.284 244.491 283.284V282.684ZM240.855 278.952C240.855 277.882 241.226 276.964 241.859 276.314C242.491 275.666 243.402 275.268 244.515 275.268V274.668C243.253 274.668 242.183 275.122 241.429 275.896C240.677 276.668 240.255 277.742 240.255 278.952H240.855ZM244.515 275.268C246.537 275.268 248.103 276.721 248.103 278.904H248.703C248.703 276.383 246.861 274.668 244.515 274.668V275.268ZM248.103 278.904C248.103 280.001 247.736 280.945 247.11 281.612C246.486 282.277 245.589 282.684 244.491 282.684V283.284C245.746 283.284 246.804 282.815 247.548 282.022C248.29 281.231 248.703 280.135 248.703 278.904H248.103Z" fill="black" mask="url(#path-10-outside-1_2_551)"/>
<defs>
<filter id="filter0_d_2_551" x="0" y="0" width="408" height="479" filterUnits="userSpaceOnUse" color-interpolation-filters="sRGB">
<feFlood flood-opacity="0" result="BackgroundImageFix"/>
<feColorMatrix in="SourceAlpha" type="matrix" values="0 0 0 0 0 0 0 0 0 0 0 0 0 0 0 0 0 0 127 0" result="hardAlpha"/>
<feOffset dy="10"/>
<feGaussianBlur stdDeviation="25"/>
<feComposite in2="hardAlpha" operator="out"/>
<feColorMatrix type="matrix" values="0 0 0 0 0 0 0 0 0 0 0 0 0 0 0 0 0 0 0.05 0"/>
<feBlend mode="normal" in2="BackgroundImageFix" result="effect1_dropShadow_2_551"/>
<feBlend mode="normal" in="SourceGraphic" in2="effect1_dropShadow_2_551" result="shape"/>
</filter>
</defs>
</svg>
